<?xml version="1.0" encoding="utf-8"?>
<!-- Generator: Adobe Illustrator 21.0.2, SVG Export Plug-In . SVG Version: 6.00 Build 0)  -->
<svg version="1.1" id="Layer_1" xmlns="http://www.w3.org/2000/svg" xmlns:xlink="http://www.w3.org/1999/xlink" x="0px" y="0px"
	 viewBox="0 0 146.8 120.4" style="enable-background:new 0 0 146.8 120.4;" xml:space="preserve">
<style type="text/css">
	.st0{fill:none;}
	.st1{fill:#FF5F00;}
	.st2{fill:#EB001B;}
	.st3{fill:#F79E1B;}
</style>
<g>
	<rect class="st0" width="146.8" height="120.4"/>
	<g>
		<g>
			<path id="XMLID_1775_" d="M36.3,105.3v-6c0-2.3-1.4-3.8-3.8-3.8c-1.2,0-2.5,0.4-3.4,1.7c-0.7-1.1-1.7-1.7-3.2-1.7
				c-1,0-2,0.3-2.8,1.4v-1.2H21v9.6h2.1V100c0-1.7,0.9-2.5,2.3-2.5s2.1,0.9,2.1,2.5v5.3h2.1V100c0-1.7,1-2.5,2.3-2.5
				c1.4,0,2.1,0.9,2.1,2.5v5.3H36.3z M67.4,95.7H64v-2.9h-2.1v2.9H60v1.9h1.9v4.4c0,2.2,0.9,3.5,3.3,3.5c0.9,0,1.9-0.3,2.6-0.7
				l-0.6-1.8c-0.6,0.4-1.3,0.5-1.8,0.5c-1,0-1.4-0.6-1.4-1.6v-4.3h3.4V95.7z M85.2,95.5c-1.2,0-2,0.6-2.5,1.4v-1.2h-2.1v9.6h2.1
				v-5.4c0-1.6,0.7-2.5,2-2.5c0.4,0,0.9,0.1,1.3,0.2l0.6-2C86.2,95.5,85.6,95.5,85.2,95.5L85.2,95.5z M58.3,96.5c-1-0.7-2.4-1-3.9-1
				c-2.4,0-4,1.2-4,3.1c0,1.6,1.2,2.5,3.3,2.8l1,0.1c1.1,0.2,1.7,0.5,1.7,1c0,0.7-0.8,1.2-2.2,1.2c-1.4,0-2.5-0.5-3.2-1l-1,1.6
				c1.1,0.8,2.6,1.2,4.1,1.2c2.8,0,4.4-1.3,4.4-3.1c0-1.7-1.3-2.6-3.3-2.9l-1-0.1c-0.9-0.1-1.6-0.3-1.6-0.9c0-0.7,0.7-1.1,1.8-1.1
				c1.2,0,2.4,0.5,3,0.8L58.3,96.5z M114.1,95.5c-1.2,0-2,0.6-2.5,1.4v-1.2h-2.1v9.6h2.1v-5.4c0-1.6,0.7-2.5,2-2.5
				c0.4,0,0.9,0.1,1.3,0.2l0.6-2C115.1,95.5,114.5,95.5,114.1,95.5L114.1,95.5z M87.3,100.5c0,2.9,2,5,5.1,5c1.4,0,2.4-0.3,3.4-1.1
				l-1-1.7c-0.8,0.6-1.6,0.9-2.5,0.9c-1.7,0-2.9-1.2-2.9-3.1c0-1.8,1.2-3,2.9-3.1c0.9,0,1.7,0.3,2.5,0.9l1-1.7c-1-0.8-2-1.1-3.4-1.1
				C89.3,95.5,87.3,97.6,87.3,100.5L87.3,100.5z M106.7,100.5v-4.8h-2.1v1.2c-0.7-0.9-1.7-1.4-3-1.4c-2.7,0-4.8,2.1-4.8,5
				s2.1,5,4.8,5c1.4,0,2.4-0.5,3-1.4v1.2h2.1V100.5z M99,100.5c0-1.7,1.1-3.1,2.9-3.1c1.7,0,2.9,1.3,2.9,3.1c0,1.7-1.2,3.1-2.9,3.1
				C100.1,103.5,99,102.2,99,100.5L99,100.5z M73.9,95.5c-2.8,0-4.8,2-4.8,5s2,5,4.9,5c1.4,0,2.8-0.4,3.9-1.3l-1-1.5
				c-0.8,0.6-1.8,1-2.8,1c-1.3,0-2.6-0.6-2.9-2.3h7.1c0-0.3,0-0.5,0-0.8C78.4,97.5,76.6,95.5,73.9,95.5L73.9,95.5z M73.9,97.3
				c1.3,0,2.2,0.8,2.4,2.3h-5C71.5,98.3,72.4,97.3,73.9,97.3L73.9,97.3z M126,100.5v-8.6h-2.1v5c-0.7-0.9-1.7-1.4-3-1.4
				c-2.7,0-4.8,2.1-4.8,5s2.1,5,4.8,5c1.4,0,2.4-0.5,3-1.4v1.2h2.1V100.5z M118.3,100.5c0-1.7,1.1-3.1,2.9-3.1
				c1.7,0,2.9,1.3,2.9,3.1c0,1.7-1.2,3.1-2.9,3.1C119.4,103.5,118.3,102.2,118.3,100.5L118.3,100.5z M48.1,100.5v-4.8H46v1.2
				c-0.7-0.9-1.7-1.4-3-1.4c-2.7,0-4.8,2.1-4.8,5s2.1,5,4.8,5c1.4,0,2.4-0.5,3-1.4v1.2h2.1V100.5z M40.3,100.5
				c0-1.7,1.1-3.1,2.9-3.1c1.7,0,2.9,1.3,2.9,3.1c0,1.7-1.2,3.1-2.9,3.1C41.4,103.5,40.3,102.2,40.3,100.5z"/>
		</g>
		<g id="XMLID_328_">
			<rect x="57.6" y="22.8" class="st1" width="31.5" height="56.6"/>
			<path id="XMLID_330_" class="st2" d="M59.6,51.1c0-11.5,5.4-21.7,13.7-28.3c-6.1-4.8-13.8-7.7-22.2-7.7c-19.9,0-36,16.1-36,36
				s16.1,36,36,36c8.4,0,16.1-2.9,22.2-7.7C65,72.9,59.6,62.6,59.6,51.1z"/>
			<path class="st3" d="M131.6,51.1c0,19.9-16.1,36-36,36c-8.4,0-16.1-2.9-22.2-7.7c8.4-6.6,13.7-16.8,13.7-28.3
				s-5.4-21.7-13.7-28.3c6.1-4.8,13.8-7.7,22.2-7.7C115.5,15.1,131.6,31.3,131.6,51.1z"/>
		</g>
	</g>
</g>
</svg>
