<?xml version="1.0" encoding="utf-8"?>
<!-- Generator: Adobe Illustrator 19.1.0, SVG Export Plug-In . SVG Version: 6.00 Build 0)  -->
<svg version="1.1" id="svg10908" xmlns:svg="http://www.w3.org/2000/svg"
	 xmlns="http://www.w3.org/2000/svg" xmlns:xlink="http://www.w3.org/1999/xlink" x="0px" y="0px" viewBox="214 199.9 1024 293.9"
	 style="enable-background:new 214 199.9 1024 293.9;" xml:space="preserve">
<style type="text/css">
	.st0{fill:#10298E;}
	.st1{fill:#FFBE00;}
</style>
<path id="path5689" class="st0" d="M446.3,297H378c0-11.2-1.3-18.7-3.9-22.6c-4.1-5.7-15.3-8.5-33.6-8.5c-17.8,0-29.7,1.6-35.4,4.9
	c-5.8,3.3-8.7,10.4-8.7,21.4c0,9.9,2.6,16.5,7.7,19.6c3.7,2.2,8.5,3.5,14.6,3.9l13.8,1c29.5,2,48,3.3,55.3,4.1
	c23.3,2.4,40.3,8.6,50.8,18.6c8.3,7.9,13.2,18.1,14.8,30.8c0.9,7.6,1.4,16.2,1.4,25.7c0,22-2.1,38-6.3,48.2
	c-7.6,18.7-24.7,30.5-51.3,35.5c-11.1,2.1-28.2,3.1-51.1,3.1c-38.2,0-64.9-2.3-80-6.9c-18.5-5.6-30.7-17-36.5-34.1
	c-3.3-9.5-4.9-25.4-4.9-47.6h68.3c0,2.5,0,4.4,0,5.7c0,11.8,3.4,19.5,10.2,22.9c4.7,2.3,10.4,3.6,17.1,3.7h25.1
	c12.8,0,21-0.7,24.5-2c6.3-2.5,10.4-6.4,12.4-11.9c1-3.4,1.6-7.8,1.6-13.1c0-12-4.4-19.3-13.1-21.9c-3.3-1-18.5-2.5-45.7-4.3
	c-21.8-1.6-37-3.1-45.5-4.5c-22.4-4.2-37.3-12.8-44.7-25.8c-6.5-11.1-9.8-27.9-9.8-50.3c0-17.1,1.8-30.8,5.3-41.1
	c3.5-10.3,9.2-18.2,17.1-23.5c11.5-8.2,26.2-13.1,44.2-14.5c14.9-1.3,31.5-2,49.7-2c28.7,0,49.1,1.6,61.3,4.9
	c29.7,8,44.6,30.4,44.6,67.1C446.9,286.5,446.7,291,446.3,297"/>
<path id="path5693" class="st0" d="M746.6,482.8V210h107h16.8h13c18.8,0,33.1,1.5,42.9,4.6c22.5,7,37.6,21.5,45.3,43.3
	c4,11.4,6,28.7,6,51.7c0,27.7-2.2,47.5-6.6,59.7c-8.8,23.9-26.8,37.7-54.1,41.3c-3.2,0.5-16.9,1-40.9,1.4l-12.2,0.4H820v70.4H746.6z
	 M820,349.1h45.8c14.5-0.5,23.3-1.6,26.5-3.4c4.3-2.4,7.3-7.2,8.7-14.3c0.9-4.8,1.4-11.9,1.4-21.3c0-11.5-0.9-20.1-2.8-25.7
	c-2.6-7.8-9-12.6-19-14.3c-2-0.3-6.7-0.4-14.2-0.4H820V349.1z"/>
<path id="path5697" class="st0" d="M1134.3,435.6h-98.2l-13.2,47.1h-76l82-272.8h110.7l83,272.8h-74.4L1134.3,435.6z M1119.7,382.5
	l-34.4-118.2l-33.4,118.2H1119.7z"/>
<path id="path5701" class="st1" d="M645.3,248.4c30.3,0,57.3,13.9,75.1,35.8l15.8-33.9c-24.7-23.4-58.4-37.8-95.6-37.8
	c-57.8,0-107.3,34.9-127.6,84.4h-30.9l-18.2,39.1h39.7c-0.3,3.6-0.5,7.2-0.5,10.9c0,4.5,0.2,8.9,0.7,13.3h-19.9l-18.2,39.1h48.3
	c20.9,48.2,69.7,82,126.7,82c28.7,0,55.3-8.6,77.4-23.3V410c-17.8,20.2-43.7,33-72.7,33c-33.8,0-63.6-17.4-80.9-43.9h101.2
	l18.2-39.1H549.5c-0.7-4.7-1.1-9.5-1.1-14.4c0-3.3,0.2-6.6,0.5-9.8H695l18.2-39.1H561.5C578.3,267.9,609.5,248.4,645.3,248.4"/>
<path id="path5705" class="st0" d="M645.3,249.5c28.9,0,55.9,12.9,74.2,35.4l1.2,1.5l0.8-1.7l15.8-33.9l0.4-0.8l-0.6-0.6
	c-26-24.6-60.2-38.1-96.4-38.1c-28.2,0-55.4,8.2-78.5,23.9c-22.6,15.2-40,36.4-50.2,61.3l1.1-0.7h-30.9h-0.8l-0.3,0.7l-18.2,39.1
	L462,337h1.8h39.7l-1.2-1.3c-0.3,4.1-0.5,7.7-0.5,11c0,4.4,0.2,8.9,0.7,13.4l1.2-1.3h-19.9h-0.7l-0.3,0.7l-18.2,39.1l-0.8,1.7h1.8
	h48.3l-1.1-0.7c21.8,50.3,71.9,82.7,127.8,82.7c28,0,55-8.1,78-23.5l0.5-0.3v-0.6V410v-3.1l-2,2.3c-18.2,20.7-44.4,32.6-71.8,32.6
	c-32.3,0-62.2-16.2-80-43.3l-1,1.8h101.2h0.8l0.3-0.7l18.2-39.1l0.8-1.7h-1.8H549.5l1.2,1c-0.7-4.7-1.1-9.5-1.1-14.2
	c0-3.2,0.2-6.5,0.5-9.7l-1.2,1.1H695h0.8l0.3-0.7l18.2-39.1l0.8-1.7h-1.9H561.5l1,1.8C579.6,267.9,611.4,249.5,645.3,249.5
	 M561.5,298h151.7l-1.1-1.7L694,335.4l1.1-0.7H548.9h-1.1l-0.1,1.1c-0.3,3.3-0.5,6.6-0.5,9.9c0,4.8,0.4,9.7,1.1,14.6l0.2,1h1h134.3
	l-1.1-1.7l-18.2,39.1l1.1-0.7H564.3h-2.2l1.2,1.8c18.2,27.8,48.9,44.4,81.9,44.4c28.1,0,54.9-12.2,73.6-33.4l-2.1-0.8v47.9l0.5-1
	c-22.7,15.1-49.2,23.1-76.7,23.1c-54.9,0-104.2-31.9-125.6-81.3l-0.3-0.7h-0.8h-48.3l1.1,1.7l18.2-39.1l-1.1,0.7h19.9h1.3l-0.1-1.3
	c-0.4-4.4-0.7-8.9-0.7-13.2c0-3.3,0.2-6.9,0.5-10.9l0.1-1.3h-1.3h-39.7l1.1,1.7l18.2-39.1l-1.1,0.7H513h0.8l0.3-0.7
	c10-24.4,27.1-45.2,49.3-60.2c22.8-15.3,49.5-23.4,77.2-23.4c35.5,0,69.2,13.3,94.8,37.5l-0.3-1.4l-15.8,33.9l2-0.2
	c-18.7-23-46.4-36.2-76-36.2c-34.8,0-67.2,18.8-84.8,49l-1,1.8H561.5z"/>
</svg>
