<?xml version="1.0" encoding="utf-8"?>
<!-- Generator: Adobe Illustrator 20.1.0, SVG Export Plug-In . SVG Version: 6.00 Build 0)  -->
<svg version="1.1" id="Ebene_1" xmlns="http://www.w3.org/2000/svg" xmlns:xlink="http://www.w3.org/1999/xlink" x="0px" y="0px"
	 viewBox="0 0 71.4 26.9" enable-background="new 0 0 71.4 26.9" xml:space="preserve">
<g>
	<rect x="0.4" y="0.4" fill="#FFFFFF" width="70.5" height="26"/>
	<rect x="6.6" y="6.7" fill-rule="evenodd" clip-rule="evenodd" fill="#FECC04" width="64.2" height="8.4"/>
	<path fill="#058738" d="M71.4,26.9H0V0h71.4V26.9z M70.8,0.6H0.6v25.7h70.2V0.6z"/>
	<path fill-rule="evenodd" clip-rule="evenodd" fill="#87888A" d="M10.6,11.7h1.2l-0.5,1.9c-0.2,0.1-0.4,0.1-0.8,0.1
		c-1.6,0-2-1.2-1.5-2.8c0.3-1,1.2-2.9,3.4-2.9c0.9,0,1.5,0.3,1.9,0.5l0.6-1.7c-0.5-0.1-1.2-0.3-2.2-0.3c-3.3,0-5.2,2.2-5.8,4.3
		c-1,3.6,1.3,4.4,2.9,4.4c1.4,0,2.5-0.2,3-0.4l1.3-4.5H11L10.6,11.7z"/>
	<path fill-rule="evenodd" clip-rule="evenodd" fill="#87888A" d="M15.3,10.9c-0.7,2.5-0.1,4.4,2.5,4.4s4.3-1.9,5-4.4
		c0.7-2.5,0-4.4-2.5-4.4S16,8.4,15.3,10.9 M17.4,10.9c0.5-1.6,1.3-2.9,2.4-2.9c1.2,0,1.2,1.3,0.8,2.9c-0.5,1.6-1.3,2.9-2.5,2.9
		C16.9,13.8,16.9,12.5,17.4,10.9"/>
	<path fill-rule="evenodd" clip-rule="evenodd" fill="#058738" d="M27.6,11.7h1.2l-0.5,1.9c-0.2,0.1-0.4,0.1-0.8,0.1
		c-1.6,0-2-1.2-1.5-2.8c0.3-1,1.2-2.9,3.4-2.9c0.9,0,1.5,0.3,1.9,0.5l0.6-1.7c-0.5-0.1-1.2-0.3-2.2-0.3c-3.3,0-5.2,2.2-5.8,4.3
		c-1,3.6,1.3,4.4,2.9,4.4c1.4,0,2.5-0.2,3-0.4l1.3-4.5H28L27.6,11.7z"/>
	<path fill-rule="evenodd" clip-rule="evenodd" fill="#058738" d="M31.3,15.1h2.1l1-3.4c0.8,0,1,0,1,1.1l0,2.3h2.2l-0.1-2.8
		c0-1-0.2-1.3-0.8-1.4l0,0c1.8-0.3,2.2-1.7,2.3-2.1c0.4-1.6-0.6-2.2-2-2.2h-3.2L31.3,15.1z M35.3,8.1h0.6c1.1,0,1,0.7,0.9,1.1
		c-0.2,0.6-0.7,1.1-1.5,1.1h-0.6L35.3,8.1z"/>
	<polygon fill-rule="evenodd" clip-rule="evenodd" fill="#058738" points="38.7,15.1 43.9,15.1 44.3,13.6 41.1,13.6 41.7,11.5 
		44.6,11.5 45.1,10 42.1,10 42.7,8.1 45.8,8.1 46.2,6.7 41.1,6.7 	"/>
	<polygon fill-rule="evenodd" clip-rule="evenodd" fill="#058738" points="45.2,15.1 50.4,15.1 50.9,13.6 47.6,13.6 48.2,11.5 
		51.2,11.5 51.6,10 48.7,10 49.2,8.1 52.3,8.1 52.7,6.7 47.6,6.7 	"/>
	<polygon fill-rule="evenodd" clip-rule="evenodd" fill="#058738" points="51.7,15.1 53.5,15.1 55.2,9 55.3,9 56,15.1 58.5,15.1 
		60.9,6.7 59.1,6.7 57.4,12.5 57.4,12.5 56.5,6.7 54.1,6.7 	"/>
</g>
</svg>
