<svg xmlns="http://www.w3.org/2000/svg" width="80" height="45" viewBox="0 0 80 45">
    <g fill="none" fill-rule="nonzero">
        <g fill="#F08513">
            <path d="M72.78 12.345c0-1.136-.9-2.048-2-2.048s-2 .912-2 2.048v1.54h4.02v-1.54h-.02zM67.76 20.027h6.04v-5.128h-6.02v5.128h-.02zm3.08-3.69c.6 0 1.08.487 1.08 1.095 0 .426-.24.791-.58.973.1-.121.14-.263.14-.425a.67.67 0 0 0-.66-.67.67.67 0 0 0-.66.67c0 .162.06.324.16.446-.36-.183-.6-.548-.6-.994.04-.608.52-1.094 1.12-1.094z"/>
            <path d="M80 15.588c0-5.27-4.22-9.547-9.44-9.547-2.5 0-4.76.973-6.44 2.574C61.22 3.486 55.72 0 49.48 0c-6 0-11.58 3.345-14.58 8.716l-1.72 3.102-3.48-.629c-.82-.142-1.44-.203-1.98-.203-4.78 0-9.08 3.102-10.68 7.723l-1.24 3.548-3.78-.243c-.22-.02-.46-.041-.74-.082h-.08C5.02 22.014 0 27.162 0 33.385c0 6.324 5.1 11.453 11.38 11.453h54.44c6.28 0 11.38-5.129 11.38-11.453 0-3.385-1.52-6.507-4-8.635a9.541 9.541 0 0 0 6.8-9.162zm-3.78 17.797c0 5.777-4.66 10.46-10.4 10.46H11.38c-5.74 0-10.4-4.703-10.4-10.46 0-5.676 4.58-10.358 10.2-10.46.3.041.56.061.78.082l4.5.304 1.48-4.277c1.46-4.216 5.38-7.054 9.76-7.054.5 0 1.06.06 1.82.202l4.16.75 2.06-3.709c2.82-5.068 8.1-8.21 13.74-8.21 5.98 0 11.22 3.386 13.92 8.372a9.59 9.59 0 0 0-2.3 6.223c0 5.27 4.22 9.547 9.44 9.547.48 0 .96-.04 1.42-.1a10.217 10.217 0 0 1 4.26 8.33zM74.8 20.027a1.01 1.01 0 0 1-1 1.014h-6.02c-.56 0-1-.467-1-1.014v-5.128a.997.997 0 0 1 1-1.014v-1.54c0-1.703 1.34-3.061 3.02-3.061 1.66 0 3.02 1.378 3.02 3.06v1.541c.56 0 1 .466 1 1.014v5.128h-.02z"/>
        </g>
        <g fill="#EF850E">
            <path d="M21.9 35.149c-.98 0-1.76-.223-2.4-.852l.56-.567c.46.486 1.08.689 1.82.689.96 0 1.56-.345 1.56-1.054 0-.507-.3-.81-.98-.872l-.96-.08c-1.14-.102-1.74-.609-1.74-1.582 0-1.074.9-1.723 2.14-1.723.82 0 1.58.203 2.1.628l-.56.568c-.42-.324-.94-.466-1.56-.466-.86 0-1.3.365-1.3.973 0 .507.28.81 1.02.871l.94.082c1.02.1 1.72.486 1.72 1.6.02 1.136-.94 1.785-2.36 1.785zM32.78 35.088v-3.649c0-1.054-.56-1.58-1.44-1.58-.86 0-1.46.546-1.46 1.479v3.73h-.86v-3.65c0-1.053-.56-1.58-1.44-1.58-.88 0-1.46.547-1.46 1.58v3.65h-.86v-5.92h.86v.65c.42-.487 1-.73 1.64-.73.8 0 1.44.344 1.78.993.44-.649 1.1-.993 1.92-.993.62 0 1.14.202 1.5.547.42.405.62.953.62 1.642v3.79h-.8v.04zM38.34 35.088v-.568c-.48.487-.9.629-1.68.629-.8 0-1.28-.163-1.64-.548-.28-.283-.44-.73-.44-1.196 0-1.033.72-1.702 2.02-1.702h1.76v-.568c0-.871-.42-1.297-1.5-1.297-.74 0-1.12.182-1.46.669l-.58-.548c.52-.689 1.12-.871 2.06-.871 1.56 0 2.34.689 2.34 1.966v4.014h-.88v.02zm0-2.737H36.7c-.88 0-1.3.365-1.3 1.054 0 .69.42 1.014 1.34 1.014.5 0 .94-.04 1.3-.405.2-.183.3-.528.3-1.014v-.649zM43.88 30.304c-.32-.324-.56-.426-1-.426-.86 0-1.4.69-1.4 1.581v3.629h-.86v-5.92h.86v.73c.32-.486.96-.79 1.64-.79.56 0 .98.142 1.4.547l-.64.65zM46.98 35.088c-1 0-1.5-.71-1.5-1.581v-3.629h-.74v-.669h.74v-1.844h.86v1.844h1.24v.67h-1.24v3.607c0 .548.24.872.8.872h.44v.75h-.6v-.02zM51.3 26.493v.75h-.46c-.54 0-.78.325-.78.872v1.094h1.24v.67h-1.24v5.209h-.86v-5.21h-.74v-.669h.74v-1.114c0-.872.48-1.581 1.48-1.581h.62v-.02zM55.48 30.304c-.32-.324-.56-.426-1-.426-.86 0-1.4.69-1.4 1.581v3.629h-.86v-5.92h.86v.73c.32-.486.96-.79 1.64-.79.56 0 .98.142 1.4.547l-.64.65zM60.16 34.48c-.4.405-.96.669-1.66.669-.72 0-1.26-.264-1.66-.67-.6-.607-.72-1.438-.72-2.35 0-.913.12-1.744.72-2.352.4-.405.96-.669 1.66-.669.72 0 1.26.264 1.66.669.6.608.72 1.44.72 2.351-.02.913-.14 1.744-.72 2.352zm-.62-4.176a1.47 1.47 0 0 0-1.06-.426c-.42 0-.78.163-1.06.426-.42.426-.48 1.176-.48 1.824 0 .67.04 1.399.48 1.825.28.283.64.425 1.06.425.42 0 .8-.162 1.06-.425.42-.426.46-1.176.46-1.825.02-.669-.02-1.398-.46-1.824zM63.9 37.804c-.88 0-1.36-.223-1.98-.79l.56-.548c.42.385.72.588 1.4.588 1.12 0 1.6-.81 1.6-1.824v-.933c-.48.608-1 .77-1.64.77-.6 0-1.1-.222-1.4-.526-.58-.588-.72-1.5-.72-2.473 0-.953.14-1.886.72-2.473.3-.304.82-.507 1.42-.507.64 0 1.16.142 1.64.77v-.69h.84v6.102c0 1.46-.9 2.534-2.44 2.534zm.14-7.946c-1.26 0-1.46 1.115-1.46 2.21 0 1.114.18 2.209 1.46 2.209 1.26 0 1.44-1.115 1.44-2.21 0-1.094-.18-2.209-1.44-2.209z"/>
        </g>
        <g fill="#EF850E">
            <path d="M42.92 15.223c-3.08 0-5.58 2.534-5.58 5.655 0 3.122 2.5 5.656 5.58 5.656S48.5 24 48.5 20.878c0-3.121-2.5-5.655-5.58-5.655zm0 10.743c-2.78 0-5.02-2.27-5.02-5.088 0-2.817 2.24-5.087 5.02-5.087 2.78 0 5.02 2.27 5.02 5.087 0 2.798-2.24 5.088-5.02 5.088z"/>
            <path d="M42.92 16.358c-2.46 0-4.46 2.027-4.46 4.52a4.49 4.49 0 0 0 2.38 3.994 2.757 2.757 0 0 1-.62-1.744c0-1.5 1.2-2.736 2.7-2.736 1.48 0 2.7 1.216 2.7 2.736 0 .67-.24 1.277-.62 1.744a4.514 4.514 0 0 0 2.38-3.994c0-2.493-2-4.52-4.46-4.52z"/>
        </g>
    </g>
</svg>
