<svg xmlns="http://www.w3.org/2000/svg" xmlns:xlink="http://www.w3.org/1999/xlink" width="234" height="190" viewBox="0 0 234 190">
    <defs>
        <path id="a" d="M0 .774h234V190H0z"/>
        <path id="c" d="M.617.83H155V115H.617z"/>
    </defs>
    <g fill="none" fill-rule="evenodd">
        <path fill="#F18713" d="M8.94 183.137h216.21V63.02H8.94z"/>
        <g>
            <mask id="b" fill="#fff">
                <use xlink:href="#a"/>
            </mask>
            <path fill="#E20D00" d="M221.377 174.745c0 .883 0 2.524-2.633 2.632h-98.787V67.013h98.787c.882 0 2.526 0 2.633 2.633v105.1zM180.141 17.107c4.488-.125 8.096 1.763 11.377 5.942 4.055 5.164 3.551 8.386 2.82 10.361-2.436 6.574-13.575 13.9-30.562 20.097-.831.303-1.659.597-2.484.883h-28.853c11.155-14.224 32.122-36.848 47.702-37.283zm-72.806 160.27H15.256c-.944 0-2.525 0-2.633-2.632V69.646c0-.879-.001-2.512 2.713-2.633h91.999v110.364zM64.156 51.65c-16.853-6.46-27.85-13.953-30.17-20.555-.699-1.989-1.146-5.224 3.019-10.337 3.373-4.142 7.035-5.975 11.541-5.769 16.067.738 37.409 25.16 47.969 39.402H71.834a184.558 184.558 0 0 1-7.678-2.74zm154.588 2.741h-24.927c7.05-4.95 11.706-10.305 13.832-16.039 2.041-5.499 2.835-14.14-4.962-24.072-6.039-7.69-13.978-11.625-22.955-11.366-21.49.608-44.572 25.407-56.343 40.02-2.292-2.934-5.854-4.827-9.865-4.827a12.48 12.48 0 0 0-8.79 3.61C93.249 26.927 70.672 1.797 49.209.803 40.197.392 32.19 4.187 25.996 11.79 18 21.606 18.644 30.27 20.592 35.81c2.343 6.66 8.033 12.871 16.945 18.581H15.256C9.124 54.39 0 58.453 0 69.646v105.1C0 180.876 4.064 190 15.256 190h203.488c6.133 0 15.256-4.063 15.256-15.255V69.646c0-6.13-4.062-15.256-15.256-15.256z" mask="url(#b)"/>
        </g>
        <g transform="translate(79 75)">
            <mask id="d" fill="#fff">
                <use xlink:href="#c"/>
            </mask>
            <path fill="#FFF" fill-opacity=".9" d="M155 91.984V28.59C139.419 9.303 109.673-1.994 76.988 1.442 31.348 6.238-2.728 37.936.879 72.24 2.77 90.237 14.667 105.366 32.131 115h94.619c11.666-5.926 21.363-13.858 28.25-23.016" mask="url(#d)"/>
        </g>
        <path fill="#E20D00" d="M116 128.284l-4.681.562-2.203-18.329-4.354 2.313-.467-3.89 8.322-4.629.494-.059zM132.96 108.152l.33 1.633c.886-1.444 2.186-2.269 3.899-2.475 1.781-.214 3.135.437 4.065 1.952.829-1.726 2.188-2.704 4.078-2.93 3.121-.376 4.98 1.591 5.575 5.9l1.406 11.687-4.665.56-1.37-11.39c-.124-1.033-.355-1.75-.693-2.157-.339-.405-.85-.566-1.53-.484-.868.104-1.452.715-1.753 1.832l.1.557 1.454 12.098-4.665.561-1.364-11.357c-.123-1.022-.349-1.744-.679-2.168-.33-.423-.846-.59-1.549-.506-.802.095-1.388.607-1.755 1.531l1.556 12.956-4.664.56-2.143-17.835 4.367-.525zM158.894 114.688c.386 3.206 1.43 4.706 3.133 4.501 1.572-.188 2.257-1.627 2.056-4.317l-.22-1.977c-.197-1.635-.569-2.822-1.114-3.558-.546-.736-1.23-1.056-2.054-.958-.791.096-1.362.567-1.713 1.411-.35.843-.427 2.084-.23 3.72l.142 1.177zm-4.822-.612c-.325-2.702.056-4.9 1.148-6.591 1.089-1.694 2.76-2.674 5.013-2.945 2.274-.274 4.14.282 5.6 1.668 1.46 1.385 2.355 3.44 2.681 6.166l.137 1.136c.326 2.715-.05 4.912-1.13 6.59-1.08 1.68-2.757 2.656-5.031 2.93-2.287.275-4.157-.278-5.61-1.659-1.453-1.378-2.344-3.432-2.672-6.158l-.136-1.136zM174.679 103.138l.344 1.748c.886-1.521 2.18-2.386 3.885-2.59 3.066-.37 4.9 1.59 5.505 5.875l1.409 11.72-4.681.563-1.367-11.373c-.121-1.011-.361-1.726-.718-2.147-.357-.42-.915-.583-1.673-.492-.847.1-1.453.616-1.821 1.54l1.557 12.956-4.681.562-2.144-17.835 4.385-.527zM191.92 96.618l.526 4.384 2.39-.287.42 3.495-2.39.287 1.067 8.864c.085.705.239 1.177.463 1.42.223.24.61.327 1.16.261.45-.054.813-.137 1.09-.248l.404 3.631a7.345 7.345 0 0 1-2.52.753c-3.01.362-4.74-1.182-5.187-4.632l-1.141-9.489-2.06.25-.42-3.497 2.06-.248-.527-4.383 4.665-.56zM202.129 101.427c.859-1.385 2.024-2.166 3.497-2.343 1.626-.195 2.932.227 3.915 1.268.984 1.042 1.617 2.692 1.9 4.955l1.363 11.34-4.681.563-1.357-11.291c-.126-1.044-.38-1.78-.76-2.207-.38-.43-.932-.598-1.657-.512-.847.102-1.46.57-1.837 1.408l1.573 13.088-4.665.56-3.043-25.317 4.664-.561 1.088 9.049zM130.895 170.81l-2.383-19.822-2.984.357-.58-4.83 2.984-.357-.266-2.21c-.311-2.722.151-4.924 1.39-6.606 1.238-1.681 3.11-2.675 5.617-2.976.76-.092 1.75-.056 2.971.105l.575 5.156c-.457-.085-.99-.089-1.596-.016-1.915.23-2.736 1.484-2.46 3.763l.24 2.005 3.85-.463.58 4.83-3.85.462 2.383 19.825-6.47.778zM154.654 149.255l-2.164.074c-1.762.212-2.86 1.13-3.297 2.756l1.958 16.29-6.47.778-2.965-24.653 6.084-.731.502 2.643c.768-2.203 2.048-3.412 3.841-3.628.73-.088 1.333-.06 1.813.082l.698 6.389zM163.879 151.96l6.448-.775-.072-.599c-.21-1.482-.588-2.579-1.135-3.291-.548-.711-1.385-1-2.508-.865-1.124.135-1.891.639-2.303 1.513-.411.874-.555 2.212-.43 4.017m5.874 14.641c-3.311.398-6.013-.278-8.103-2.031-2.09-1.751-3.356-4.464-3.798-8.141l-.236-1.96c-.467-3.888.022-6.99 1.47-9.306 1.447-2.316 3.759-3.665 6.934-4.047 3.098-.373 5.548.337 7.35 2.128 1.804 1.791 2.953 4.627 3.45 8.505l.38 3.163-12.827 1.542c.313 1.835.878 3.138 1.694 3.905.817.769 1.969 1.063 3.458.884 2.157-.26 3.867-1.227 5.129-2.905l2.997 3.592c-.658 1.188-1.7 2.212-3.121 3.069-1.422.857-3.015 1.391-4.777 1.602M186.208 149.275l6.448-.775-.072-.599c-.209-1.482-.587-2.579-1.135-3.29-.548-.712-1.385-1-2.508-.865-1.125.134-1.892.64-2.303 1.512-.411.874-.554 2.213-.43 4.017m5.874 14.642c-3.311.398-6.013-.279-8.103-2.032-2.09-1.75-3.356-4.464-3.797-8.14l-.237-1.96c-.466-3.888.023-6.99 1.47-9.306 1.447-2.317 3.759-3.666 6.934-4.048 3.098-.372 5.548.338 7.351 2.128 1.803 1.792 2.952 4.627 3.45 8.506l.38 3.163-12.828 1.542c.313 1.834.878 3.137 1.694 3.904.817.77 1.969 1.064 3.458.884 2.157-.259 3.867-1.227 5.129-2.904l2.997 3.591c-.658 1.19-1.698 2.213-3.121 3.07-1.422.856-3.015 1.39-4.777 1.602"/>
    </g>
</svg>
