<?xml version="1.0" encoding="utf-8"?><svg width="200" height="200" viewBox="0 0 200 200" xmlns="http://www.w3.org/2000/svg" xmlns:xlink="http://www.w3.org/1999/xlink"><svg width="40" height="40" viewBox="0 0 40 40" id="facebook" xmlns="http://www.w3.org/2000/svg"><style/><path id="afacebook-fb" d="M8 0h24c4.4 0 8 3.6 8 8v24c0 4.4-3.6 8-8 8h-5.7V24.5h5.2l.8-6h-6v-3.9c0-1.7.5-2.9 3-2.9h3.2V6.3c-1.6-.2-3.2-.3-4.7-.3-4.6 0-7.8 2.9-7.8 8v4.5h-5.2v6H20V40H8c-4.4 0-8-3.6-8-8V8c0-4.4 3.6-8 8-8z" fill="#3a5999"/></svg><svg width="40" height="40" viewBox="0 0 40 40" id="gplus" x="40" y="40" xmlns="http://www.w3.org/2000/svg"><defs><style>.bcls-1{fill:#de4b39;fill-rule:evenodd}</style></defs><path id="bg_" data-name="g+" class="bcls-1" d="M1286 660h24a8 8 0 0 1 8 8v24a8 8 0 0 1-8 8h-24a8 8 0 0 1-8-8v-24a8 8 0 0 1 8-8zm10.32 15.714a3.032 3.032 0 0 1-.68 2.142 3.8 3.8 0 0 1-2.07.858c-2.61 0-3.71-3.429-3.71-5.429a3.684 3.684 0 0 1 .68-2.285 2.667 2.667 0 0 1 2.07-1c2.48 0 3.71 3.428 3.71 5.714zm.55-5.714h1.66l1.92-1h-6.05a7.873 7.873 0 0 0-5.23 1.714 5.286 5.286 0 0 0-1.93 4 4.691 4.691 0 0 0 5.23 4.714h.96a2.369 2.369 0 0 0-.27 1.143 3.285 3.285 0 0 0 .82 2c-1.37.142-3.85.285-5.64 1.429a4.424 4.424 0 0 0-2.34 3.712c0 2.143 2.07 4.285 6.33 4.285 4.96 0 7.71-2.856 7.71-5.713 0-2.142-1.24-3.142-2.48-4.285l-1.1-.857a1.447 1.447 0 0 1-.82-1.286 2.191 2.191 0 0 1 .82-1.427c1.24-1 2.48-2 2.48-4.286a5.508 5.508 0 0 0-2.07-4.143zm15.14 9.141h-4.13v-4.284h-2.75v4.284H1301V682h4.13v4.285h2.75V682h4.13v-2.857zm-18.03 4.428a10.884 10.884 0 0 0-3.16.43 3.374 3.374 0 0 0-2.48 3.141c0 2.142 2.07 3.714 5.23 3.714 2.89 0 4.41-1.428 4.41-3.285 0-1.575-.97-2.428-3.17-4h-.83z" transform="translate(-1278 -660)"/></svg><svg width="40" height="40" viewBox="0 0 40 40" id="instagram" x="80" y="80" xmlns="http://www.w3.org/2000/svg"><defs><radialGradient id="ca" gradientUnits="userSpaceOnUse" cx="158.429" cy="578.088" fx="158.429" fy="578.088" r="65" gradientTransform="matrix(0 -.6006 .55876 0 -312.242 137.88)"><stop offset="0" stop-color="#fd5"/><stop offset=".1" stop-color="#fd5"/><stop offset=".5" stop-color="#ff543e"/><stop offset="1" stop-color="#c837ab"/></radialGradient><radialGradient id="cb" gradientUnits="userSpaceOnUse" cx="147.694" cy="473.455" fx="147.694" fy="473.455" r="65" gradientTransform="matrix(.0527 .26325 -1.0854 .21733 499.804 -138.634)"><stop offset="0" stop-color="#3771c8"/><stop offset=".128" stop-color="#3771c8"/><stop offset="1" stop-color="#60f" stop-opacity="0"/></radialGradient></defs><path d="M20.012.305c-8.227 0-10.633.008-11.098.047-1.691.14-2.738.406-3.883.972a7.963 7.963 0 0 0-2.265 1.66C1.516 4.281.758 5.88.484 7.774c-.132.921-.171 1.109-.18 5.816-.003 1.566 0 3.633 0 6.402 0 8.215.009 10.621.048 11.086.136 1.645.394 2.676.941 3.805a8.293 8.293 0 0 0 5.379 4.394c.812.211 1.707.325 2.86.38.488.023 5.46.038 10.437.038 4.976 0 9.949-.008 10.426-.03 1.335-.063 2.109-.169 2.964-.388a8.25 8.25 0 0 0 5.38-4.406c.534-1.101.804-2.176.929-3.73.023-.34.035-5.75.035-11.157 0-5.402-.012-10.804-.039-11.144-.121-1.582-.394-2.645-.945-3.77a7.738 7.738 0 0 0-1.688-2.308C35.727 1.516 34.133.758 32.234.484c-.918-.132-1.101-.171-5.812-.18zm0 0" fill="url(#ca)"/><path d="M20.012.305c-8.227 0-10.633.008-11.098.047-1.691.14-2.738.406-3.883.972a7.963 7.963 0 0 0-2.265 1.66C1.516 4.281.758 5.88.484 7.774c-.132.921-.171 1.109-.18 5.816-.003 1.566 0 3.633 0 6.402 0 8.215.009 10.621.048 11.086.136 1.645.394 2.676.941 3.805a8.293 8.293 0 0 0 5.379 4.394c.812.211 1.707.325 2.86.38.488.023 5.46.038 10.437.038 4.976 0 9.949-.008 10.426-.03 1.335-.063 2.109-.169 2.964-.388a8.25 8.25 0 0 0 5.38-4.406c.534-1.101.804-2.176.929-3.73.023-.34.035-5.75.035-11.157 0-5.402-.012-10.804-.039-11.144-.121-1.582-.394-2.645-.945-3.77a7.738 7.738 0 0 0-1.688-2.308C35.727 1.516 34.133.758 32.234.484c-.918-.132-1.101-.171-5.812-.18zm0 0" fill="url(#cb)"/><path d="M20 5.453c-3.95 0-4.445.02-5.996.09-1.547.07-2.606.316-3.531.676a7.104 7.104 0 0 0-2.575 1.676 7.079 7.079 0 0 0-1.68 2.578c-.363.925-.605 1.98-.675 3.53-.07 1.552-.09 2.048-.09 5.997 0 3.95.02 4.445.09 5.996.07 1.547.316 2.606.676 3.531a7.104 7.104 0 0 0 1.676 2.575 7.079 7.079 0 0 0 2.578 1.68c.925.359 1.98.605 3.53.675 1.552.07 2.048.09 5.997.09 3.95 0 4.445-.02 5.996-.09 1.547-.07 2.606-.316 3.531-.676a7.065 7.065 0 0 0 2.575-1.68 7.116 7.116 0 0 0 1.68-2.574c.359-.925.6-1.984.675-3.53.07-1.552.09-2.048.09-5.997 0-3.95-.02-4.445-.09-5.996-.074-1.55-.316-2.606-.676-3.531a7.13 7.13 0 0 0-1.68-2.578 7.104 7.104 0 0 0-2.574-1.676c-.925-.36-1.984-.606-3.535-.676-1.55-.07-2.043-.09-5.996-.09zm-1.305 2.621H20c3.887 0 4.344.016 5.879.086 1.418.063 2.187.3 2.7.5a4.487 4.487 0 0 1 1.671 1.09c.512.508.824.992 1.09 1.672.2.512.437 1.281.5 2.7.07 1.53.086 1.991.086 5.874 0 3.883-.016 4.344-.086 5.875-.063 1.418-.3 2.188-.5 2.703a4.498 4.498 0 0 1-1.09 1.668 4.481 4.481 0 0 1-1.672 1.09c-.512.2-1.281.434-2.7.5-1.534.07-1.991.086-5.878.086-3.883 0-4.344-.016-5.875-.086-1.418-.066-2.188-.3-2.703-.5a4.481 4.481 0 0 1-1.672-1.09 4.53 4.53 0 0 1-1.09-1.672c-.2-.511-.433-1.28-.5-2.699-.07-1.535-.082-1.992-.082-5.879 0-3.883.012-4.34.082-5.875.067-1.418.3-2.187.5-2.699a4.577 4.577 0 0 1 1.09-1.676 4.472 4.472 0 0 1 1.672-1.086c.512-.199 1.285-.437 2.703-.504 1.34-.058 1.86-.078 4.57-.082zm9.07 2.418a1.745 1.745 0 1 0 0 3.488 1.745 1.745 0 0 0 0-3.488zM20 12.532a7.469 7.469 0 1 0 0 14.936 7.469 7.469 0 0 0 0-14.937zm0 2.62a4.848 4.848 0 1 1 0 9.696 4.847 4.847 0 1 1 0-9.695zm0 0" fill="#fff"/></svg><svg width="40" height="40" viewBox="0 0 40 40" id="twitter" x="120" y="120" xmlns="http://www.w3.org/2000/svg"><style/><path id="dtwitter-Layer" d="M40 8v24c0 4.4-3.6 8-8 8H8c-4.4 0-8-3.6-8-8V8c0-4.4 3.6-8 8-8h24c4.4 0 8 3.6 8 8zm-6.8 4.9c-.9.4-1.8.7-2.8.8 1.1-.7 1.8-1.8 2.2-3-1.1.6-2.2 1-3.4 1.2-3-3.8-10.6-.8-9.2 4.8-4.3-.3-8.2-2.3-11-5.6-1.4 2.4-.2 6.2 1.6 7.2-.8 0-1.5-.2-2.2-.6-.1 2.6 1.7 4.8 4.2 5.4-.7.1-1.5.1-2.2 0 .7 2.2 2.7 3.7 5 3.8-2.2 1.7-5 2.5-7.8 2.2 2.5 1.7 5.5 2.5 8.6 2.4 8.8-.4 14.6-6.8 14.8-16 1-.8 2-1.6 2.2-2.6z" fill="#31aae1"/></svg><svg width="40" height="40" viewBox="0 0 40 40" id="youtube" x="160" y="160" xmlns="http://www.w3.org/2000/svg"><style>.eshp0{fill:red}</style><g id="eyoutube-Layer"><path id="eyoutube-Layer" class="eshp0" d="M40 8v24c0 4.4-3.6 8-8 8H8c-4.4 0-8-3.6-8-8V8c0-4.4 3.6-8 8-8h24c4.4 0 8 3.6 8 8zm-5.5 12s0-4.7-.6-6.9c-.4-1.2-1.3-2.2-2.6-2.5C29.1 10 20 10 20 10s-8.9-.1-11.2.4c-1.3.4-2.5 1.4-2.8 2.6-.7 2.2-.6 6.9-.6 6.9s0 4.7.6 6.9c.4 1.3 1.6 2.3 2.8 2.6 2.3.7 11.2.6 11.2.6s8.9.1 11.2-.5c1.2-.4 2.4-1.4 2.7-2.6.6-2.2.6-6.9.6-6.9z"/><path id="eyoutube-Layer" class="eshp0" d="M17.2 24.5l7.2-4.5-7.2-4.5z"/></g></svg></svg>