<?xml version="1.0" encoding="utf-8"?>
<!-- Generator: Adobe Illustrator 21.0.2, SVG Export Plug-In . SVG Version: 6.00 Build 0)  -->
<svg version="1.1" id="Ebene_1" xmlns="http://www.w3.org/2000/svg" xmlns:xlink="http://www.w3.org/1999/xlink" x="0px" y="0px"
	 viewBox="0 0 77.2 77.2" style="enable-background:new 0 0 77.2 77.2;" xml:space="preserve">
<style type="text/css">
	.st0{fill:#7A7A7A;}
</style>
<path id="account" class="st0" d="M38.7,77C17.6,77,0.4,59.8,0.4,38.7S17.6,0.4,38.7,0.4S77,17.6,77,38.7l0,0
	C77,59.8,59.8,77,38.7,77z M38.7,3.4C19.3,3.4,3.6,19.1,3.6,38.5s15.7,35.1,35.1,35.1s35.1-15.7,35.1-35.1l0,0
	C73.5,19.1,58,3.6,38.7,3.4z M48.4,43.8c6.9-5.4,8.2-15.5,2.8-22.4s-15.5-8.2-22.6-2.8S20.4,34.2,25.8,41c0.9,1.1,1.7,1.9,2.8,2.8
	c-6.7,3.4-8.6,10.1-9,18.1h3c0.6-7.3,2.6-13.6,9.3-16.1c4.3,2.2,9.5,2.2,13.8,0c6.7,2.6,8.8,8.8,9.3,16.1h3
	C57.2,54,55,47.3,48.4,43.8L48.4,43.8z"/>
</svg>
