<?xml version="1.0" encoding="utf-8"?>
<!-- Generator: Adobe Illustrator 21.0.2, SVG Export Plug-In . SVG Version: 6.00 Build 0)  -->
<svg version="1.1" id="Ebene_1" xmlns="http://www.w3.org/2000/svg" xmlns:xlink="http://www.w3.org/1999/xlink" x="0px" y="0px"
	 viewBox="0 0 14.3 14.3" style="enable-background:new 0 0 14.3 14.3;" xml:space="preserve">
<style type="text/css">
	.st0{fill-rule:evenodd;clip-rule:evenodd;}
</style>
<path class="st0" d="M3.1,1.4C3.1,1.2,3,1,2.8,1L0.3,0.1C0.1,0,0,0.1,0,0.3L0.2,1c0,0.2,0.2,0.4,0.4,0.4l2.2,0.3
	C2.9,1.7,3.1,1.6,3.1,1.4z M3.8,12.1c-0.1-0.2-0.2-0.4-0.3-0.5l1.4-2.5l7.7-0.5c0.3,0,0.7-0.3,0.8-0.6l0.9-3.4
	c0.1-0.3-0.1-0.6-0.4-0.7L2.4,2.2c-0.3,0-0.6,0.2-0.5,0.5l1,5.9c0,0.1,0,0.1,0,0.2l-0.8,2.4c-0.8,0.1-1.4,0.8-1.4,1.6
	c0,0.9,0.7,1.6,1.6,1.6c0.7,0,1.2-0.4,1.5-1l5.8-0.1c0.2,0.6,0.7,1.1,1.4,1.1c0.8,0,1.4-0.6,1.4-1.4c0-0.8-0.6-1.4-1.4-1.4
	c-0.6,0-1.2,0.4-1.3,1L3.8,12.1z"/>
</svg>
