<?xml version="1.0" encoding="utf-8"?>
<!-- Generator: Adobe Illustrator 21.0.2, SVG Export Plug-In . SVG Version: 6.00 Build 0)  -->
<svg version="1.1" id="Ebene_1" xmlns="http://www.w3.org/2000/svg" xmlns:xlink="http://www.w3.org/1999/xlink" x="0px" y="0px"
	 viewBox="0 0 58 74" style="enable-background:new 0 0 58 74;" xml:space="preserve">
<style type="text/css">
	.st0{fill:#010202;}
</style>
<path class="st0" d="M56.1,52.2c-4.8,0-10.2-13.1-10.2-32C45.9,8.3,38.9,0,29,0c-9.8,0-16.7,8.4-16.7,20.4
	c0,18.8-5.5,31.9-10.5,31.9c-1,0-1.9,0.9-1.9,2v8.2c0,1.1,0.8,2,1.9,2h15.4C18.1,70.2,22.8,74,29,74c6.2,0,10.9-3.8,11.8-9.5h15.3
	c1,0,1.9-0.9,1.9-2v-8.2C58,53.1,57.1,52.2,56.1,52.2z M29,70c-4.1,0-7.1-2.1-7.9-5.6H37C36.2,67.9,33.2,70,29,70z M54.2,60.5H3.8
	v-4.6c7.2-2.3,12.4-17,12.4-35.6C16.2,12.2,20.1,4,29,4c9,0,13,8.2,13,16.3c0,18.6,5.1,33.4,12.1,35.7V60.5z"/>
</svg>
