<?xml version="1.0" encoding="utf-8"?>
<!-- Generator: Adobe Illustrator 21.0.2, SVG Export Plug-In . SVG Version: 6.00 Build 0)  -->
<svg version="1.1" id="Ebene_1" xmlns="http://www.w3.org/2000/svg" xmlns:xlink="http://www.w3.org/1999/xlink" x="0px" y="0px"
	 viewBox="0 0 72.6 77.7" style="enable-background:new 0 0 72.6 77.7;" xml:space="preserve">
<style type="text/css">
	.st0{fill:#7A7A7A;}
</style>
<path id="cam" class="st0" d="M36.2,62.9C18.7,63.3,4.1,49.4,3.9,31.7C4.5,13.9,19.6-0.1,37.5,0.5c17,0.6,30.5,14.2,31.2,31.2
	C68.2,49.4,53.8,63.3,36.2,62.9z M36.2,4C20.7,3.8,7.6,16,7.3,31.7c0.6,15.9,14,28.4,29.9,27.7C52.3,58.8,64.6,46.8,65,31.7
	C64.8,16.2,51.9,3.8,36.2,4z M36.2,7.2C22.4,7,11,17.9,10.8,31.7c0,9.5,5.6,18.1,14.2,22.2c-2.6-2.6-3.9-6.2-3.9-9.7
	c0.4-8.4,7.5-15.1,15.9-14.6c8,0.2,14.4,6.7,14.6,14.6c0,3.4-1.3,6.7-3.4,9.2c8.2-4.1,13.3-12.5,13.3-21.7
	C61.6,17.9,50.1,7,36.2,7.2z M50.8,71.3v-8.2c-9.2,3.9-19.8,3.9-29,0v8.2H3.7c-1.7,0-3.2,1.3-3.2,3v2.8h71.6v-2.8c0-1.7-1.5-3-3.2-3
	H50.8L50.8,71.3z"/>
</svg>
