<?xml version="1.0" encoding="utf-8"?>
<!-- Generator: Adobe Illustrator 21.0.2, SVG Export Plug-In . SVG Version: 6.00 Build 0)  -->
<svg version="1.1" id="Ebene_1" xmlns="http://www.w3.org/2000/svg" xmlns:xlink="http://www.w3.org/1999/xlink" x="0px" y="0px"
	 viewBox="0 0 20 20" style="enable-background:new 0 0 20 20;" xml:space="preserve">
<style type="text/css">
	.st0{fill:#010202;}
</style>
<path class="st0" d="M13.4,10l5.9-5.9c0.9-0.9,0.9-2.5,0-3.4c-0.9-0.9-2.5-0.9-3.4,0L10,6.6L4.1,0.7c-0.9-0.9-2.5-0.9-3.4,0
	c-0.9,0.9-0.9,2.5,0,3.4L6.6,10l-5.9,5.9c-0.9,0.9-0.9,2.5,0,3.4C1.2,19.8,1.8,20,2.4,20c0.6,0,1.2-0.2,1.7-0.7l5.9-5.9l5.9,5.9
	c0.5,0.5,1.1,0.7,1.7,0.7c0.6,0,1.2-0.2,1.7-0.7c0.9-0.9,0.9-2.5,0-3.4L13.4,10z"/>
</svg>
