<?xml version="1.0" encoding="utf-8"?>
<!-- Generator: Adobe Illustrator 21.0.2, SVG Export Plug-In . SVG Version: 6.00 Build 0)  -->
<svg version="1.1" id="Ebene_1" xmlns="http://www.w3.org/2000/svg" xmlns:xlink="http://www.w3.org/1999/xlink" x="0px" y="0px"
	 viewBox="0 0 80 64" style="enable-background:new 0 0 80 64;" xml:space="preserve">
<path d="M74.4,18.1H66c2.4-1.7,4-3.5,4.7-5.4c0.7-1.9,1-4.8-1.7-8.1c-2-2.6-4.7-3.9-7.8-3.8c-7.3,0.2-15.1,8.6-19.1,13.5
	c-0.8-1-2-1.6-3.3-1.6c-1.2,0-2.2,0.5-3,1.2C32,8.8,24.3,0.3,17.1,0c-3-0.1-5.8,1.1-7.9,3.7C6.5,7,6.7,10,7.4,11.8
	c0.8,2.3,2.7,4.4,5.7,6.3H5.6c-2.1,0-5.2,1.4-5.2,5.2v35.5c0,2.1,1.4,5.2,5.2,5.2h68.8c2.1,0,5.2-1.4,5.2-5.2V23.3
	C79.6,21.2,78.2,18.1,74.4,18.1z M22.1,17.2c-5.7-2.2-9.4-4.7-10.2-7c-0.2-0.7-0.4-1.8,1-3.5c1.1-1.4,2.4-2,3.9-2
	c5.4,0.2,12.7,8.5,16.2,13.3h-8.3C23.9,17.9,23,17.5,22.1,17.2z M36.7,59.7H5.6c-0.3,0-0.9,0-0.9-0.9V23.3c0-0.3,0-0.8,0.9-0.9h31.1
	V59.7z M61.4,5.5c1.5,0,2.7,0.6,3.8,2c1.4,1.7,1.2,2.8,1,3.5c-0.8,2.2-4.6,4.7-10.3,6.8c-0.3,0.1-0.6,0.2-0.8,0.3h-9.8
	C49,13.3,56.1,5.7,61.4,5.5z M75.3,58.8c0,0.3,0,0.9-0.9,0.9H41V22.4h33.4c0.3,0,0.9,0,0.9,0.9V58.8z"/>
</svg>
