<?xml version="1.0" encoding="utf-8"?>
<!-- Generator: Adobe Illustrator 21.0.2, SVG Export Plug-In . SVG Version: 6.00 Build 0)  -->
<svg version="1.1" id="Ebene_1" xmlns="http://www.w3.org/2000/svg" xmlns:xlink="http://www.w3.org/1999/xlink" x="0px" y="0px"
	 viewBox="0 0 42 28" style="enable-background:new 0 0 42 28;" xml:space="preserve">
<g>
	<path d="M37,0H5C2.3,0,0,2.2,0,5v18c0,2.8,2.3,5,5,5h32c2.8,0,5-2.2,5-5V5C42,2.2,39.7,0,37,0z M37,25.2H5c-1.2,0-2.2-1-2.2-2.2
		V10.9h36.4V23h0C39.2,24.2,38.2,25.2,37,25.2z M39.2,7L2.8,7V5c0-1.2,1-2.2,2.2-2.2h32c1.2,0,2.2,1,2.2,2.2V7z"/>
	<path d="M13.8,20.2H6.2c-0.3,0-0.5,0.2-0.5,0.5v1.5c0,0.3,0.2,0.5,0.5,0.5h7.6c0.3,0,0.5-0.2,0.5-0.5v-1.5
		C14.3,20.4,14.1,20.2,13.8,20.2z"/>
	<path d="M32.7,15.7c-0.8,0-1.5,0.3-2.1,0.7c-0.6-0.4-1.3-0.7-2.1-0.7c-1.9,0-3.5,1.5-3.5,3.5c0,1.9,1.6,3.5,3.5,3.5
		c0.8,0,1.5-0.3,2.1-0.7c0.6,0.4,1.3,0.7,2.1,0.7c1.9,0,3.5-1.5,3.5-3.5C36.2,17.3,34.7,15.7,32.7,15.7z"/>
</g>
</svg>
