<?xml version="1.0" encoding="utf-8"?>
<!-- Generator: Adobe Illustrator 21.0.2, SVG Export Plug-In . SVG Version: 6.00 Build 0)  -->
<svg version="1.1" id="Ebene_1" xmlns="http://www.w3.org/2000/svg" xmlns:xlink="http://www.w3.org/1999/xlink" x="0px" y="0px"
	 viewBox="0 0 96 96" style="enable-background:new 0 0 96 96;" xml:space="preserve">
<path d="M48,0C21.5,0,0,21.5,0,48c0,26.5,21.5,48,48,48c26.5,0,48-21.5,48-48C96,21.5,74.5,0,48,0z M48,78.6c-3.7,0-6.6-3-6.6-6.6
	c0-3.7,3-6.6,6.6-6.6c3.7,0,6.6,3,6.6,6.6C54.6,75.7,51.7,78.6,48,78.6z M50.5,53.3c-1,3.3-4,3.3-5,0c-1.2-3.8-5.3-18.3-5.3-27.8
	c0-12.4,15.6-12.5,15.6,0C55.8,35,51.5,49.9,50.5,53.3z"/>
</svg>
