<?xml version="1.0" encoding="utf-8"?>
<!-- Generator: Adobe Illustrator 21.0.2, SVG Export Plug-In . SVG Version: 6.00 Build 0)  -->
<svg version="1.1" id="Ebene_1" xmlns="http://www.w3.org/2000/svg" xmlns:xlink="http://www.w3.org/1999/xlink" x="0px" y="0px"
	 viewBox="0 0 18.4 13.6" style="enable-background:new 0 0 18.4 13.6;" xml:space="preserve">
<g>
	<path d="M2.3,6.3c0.2,0,0.3-0.1,0.4-0.2C3,5.9,3,5.5,2.8,5.2L1.1,3.5c-0.2-0.2-0.6-0.3-0.9,0c-0.3,0.2-0.3,0.6,0,0.9l1.7,1.8
		C2,6.2,2.2,6.3,2.3,6.3z"/>
	<path d="M4.3,4.2c0.1,0.2,0.3,0.4,0.6,0.4c0.1,0,0.2,0,0.3-0.1C5.5,4.3,5.6,4,5.4,3.6L4.4,1.4C4.2,1.1,3.8,1,3.5,1.2
		C3.2,1.3,3.1,1.7,3.2,2L4.3,4.2z"/>
	<path d="M7.7,3.7C7.8,3.7,7.8,3.7,7.7,3.7C8.2,3.6,8.4,3.3,8.3,3L8,0.5C7.9,0.2,7.6,0,7.3,0C6.9,0.1,6.7,0.4,6.7,0.7l0.4,2.4
		C7.1,3.4,7.4,3.7,7.7,3.7z"/>
	<path d="M10.6,3.7C10.6,3.7,10.7,3.7,10.6,3.7c0.4,0,0.7-0.2,0.7-0.5l0.4-2.4c0.1-0.3-0.2-0.7-0.5-0.7c-0.3-0.1-0.7,0.2-0.7,0.5
		L10.1,3C10,3.3,10.3,3.6,10.6,3.7z"/>
	<path d="M13.3,4.5c0.1,0,0.2,0.1,0.3,0.1c0.2,0,0.5-0.1,0.6-0.4L15.2,2c0.2-0.3,0-0.7-0.3-0.8c-0.3-0.2-0.7,0-0.8,0.3L13,3.6
		C12.8,4,13,4.3,13.3,4.5z"/>
	<path d="M18.2,3.5c-0.3-0.2-0.7-0.2-0.9,0l-1.7,1.8c-0.2,0.2-0.2,0.6,0,0.9c0.1,0.1,0.3,0.2,0.4,0.2c0.2,0,0.3-0.1,0.5-0.2l1.7-1.8
		C18.5,4.1,18.5,3.7,18.2,3.5z"/>
	<ellipse cx="9.3" cy="9.2" rx="2.1" ry="2"/>
	<path d="M9.3,4.8C4,4.8,1.3,8.5,1.3,9.2c0,0.7,2.7,4.3,7.9,4.3c5.6,0,7.9-3.7,7.9-4.3C17.2,8.6,14.3,4.8,9.3,4.8z M9.2,12.6
		c-2,0-3.6-1.5-3.6-3.4c0-1.9,1.6-3.4,3.6-3.4c2,0,3.6,1.5,3.6,3.4C12.9,11.1,11.2,12.6,9.2,12.6z"/>
</g>
</svg>
