<?xml version="1.0" encoding="utf-8"?>
<!-- Generator: Adobe Illustrator 21.0.2, SVG Export Plug-In . SVG Version: 6.00 Build 0)  -->
<svg version="1.1" id="Ebene_1" xmlns="http://www.w3.org/2000/svg" xmlns:xlink="http://www.w3.org/1999/xlink" x="0px" y="0px"
	 viewBox="0 0 40 40" style="enable-background:new 0 0 40 40;" xml:space="preserve">
<style type="text/css">
	.st0{fill:#1D1D1B;}
</style>
<path class="st0" d="M32,0H8C3.6,0,0,3.6,0,8v24c0,4.4,3.6,8,8,8h12V24.5h-5.2v-6H20V14c0-5.2,3.2-8,7.8-8c2.2,0,4.1,0.2,4.7,0.2
	v5.4l-3.2,0c-2.5,0-3,1.2-3,2.9v3.9h6l-0.8,6h-5.2V40L20,40h12c4.4,0,8-3.6,8-8V8C40,3.6,36.4,0,32,0z"/>
</svg>
