<?xml version="1.0" encoding="utf-8"?>
<!-- Generator: Adobe Illustrator 21.0.2, SVG Export Plug-In . SVG Version: 6.00 Build 0)  -->
<svg version="1.1" id="Ebene_1" xmlns="http://www.w3.org/2000/svg" xmlns:xlink="http://www.w3.org/1999/xlink" x="0px" y="0px"
	 viewBox="0 0 53 48" style="enable-background:new 0 0 53 48;" xml:space="preserve">
<style type="text/css">
	.st0{fill:#1D1D1B;}
</style>
<g>
	<path class="st0" d="M0,0v48h53V0H0z M33.1,3.4h6.6v3.4h-6.6V3.4z M23.2,3.4h6.6v3.4h-6.6V3.4z M13.2,3.4h6.6v3.4h-6.6V3.4z
		 M3.3,3.4h6.6v3.4H3.3V3.4z M9.9,44.6H3.3v-3.4h6.6V44.6z M19.9,44.6h-6.6v-3.4h6.6V44.6z M29.8,44.6h-6.6v-3.4h6.6V44.6z
		 M39.8,44.6h-6.6v-3.4h6.6V44.6z M49.7,44.6h-6.6v-3.4h6.6V44.6z M49.7,37.7H3.3V10.3h46.4V37.7z M49.7,6.9h-6.6V3.4h6.6V6.9z"/>
	<polygon class="st0" points="16.6,13.7 16.6,34.3 36.4,24 	"/>
</g>
</svg>
