<?xml version="1.0" encoding="utf-8"?>
<!-- Generator: Adobe Illustrator 21.0.2, SVG Export Plug-In . SVG Version: 6.00 Build 0)  -->
<svg version="1.1" id="Ebene_1" xmlns="http://www.w3.org/2000/svg" xmlns:xlink="http://www.w3.org/1999/xlink" x="0px" y="0px"
	 viewBox="0 0 40 40" style="enable-background:new 0 0 40 40;" xml:space="preserve">
<style type="text/css">
	.st0{fill-rule:evenodd;clip-rule:evenodd;fill:#000000;}
</style>
<path class="st0" d="M32,0H8C3.6,0,0,3.6,0,8v24c0,4.4,3.6,8,8,8h24c4.4,0,8-3.6,8-8V8C40,3.6,36.4,0,32,0z M15.5,29
	C10.3,29,6,25,6,20c0-5,4.3-9,9.5-9c2.5,0,4.7,0.9,6.4,2.3c-2,1.8-1.9,1.9-2.7,2.6c-1-0.8-2-1.3-3.7-1.3C12.4,14.7,10,17,10,20
	c0,3,2.4,5.3,5.6,5.3c3.1,0,4.3-1.3,5.2-3.6c-1.5,0-5.2,0-5.2,0v-3.6c0,0,7.3,0,9.2,0C25.3,22.5,23.4,29,15.5,29z M36,20.6h-3.3v3.2
	h-2.4v-3.2h-3.4v-2.2h3.4v-3.1h2.4v3.1H36V20.6z"/>
</svg>
