<?xml version="1.0" encoding="utf-8"?>
<!-- Generator: Adobe Illustrator 21.0.2, SVG Export Plug-In . SVG Version: 6.00 Build 0)  -->
<svg version="1.1" id="Ebene_1" xmlns="http://www.w3.org/2000/svg" xmlns:xlink="http://www.w3.org/1999/xlink" x="0px" y="0px"
	 viewBox="0 0 48 41" style="enable-background:new 0 0 48 41;" xml:space="preserve">
<style type="text/css">
	.st0{fill:#010202;}
</style>
<g>
	<path class="st0" d="M2.8,5.8h42.4c1.5,0,2.8-1.3,2.8-2.9C48,1.3,46.8,0,45.2,0H2.8C1.2,0,0,1.3,0,2.9C0,4.5,1.2,5.8,2.8,5.8z"/>
	<path class="st0" d="M45.2,35.2H2.8c-1.5,0-2.8,1.3-2.8,2.9C0,39.7,1.2,41,2.8,41h42.4c1.5,0,2.8-1.3,2.8-2.9
		C48,36.5,46.8,35.2,45.2,35.2z"/>
	<path class="st0" d="M45.2,17.6H2.8c-1.5,0-2.8,1.3-2.8,2.9c0,1.6,1.2,2.9,2.8,2.9h42.4c1.5,0,2.8-1.3,2.8-2.9
		C48,18.9,46.8,17.6,45.2,17.6z"/>
</g>
</svg>
