<?xml version="1.0" encoding="utf-8"?>
<!-- Generator: Adobe Illustrator 21.1.0, SVG Export Plug-In . SVG Version: 6.00 Build 0)  -->
<svg version="1.1" id="Ebene_1" xmlns="http://www.w3.org/2000/svg" xmlns:xlink="http://www.w3.org/1999/xlink" x="0px" y="0px"
	 viewBox="0 0 40 40" style="enable-background:new 0 0 40 40;" xml:space="preserve">
<style type="text/css">
	.st0{fill:#1D1D1B;}
</style>
<g>
	<path class="st0" d="M25.7,8.6c-1.5-0.1-1.9-0.1-5.7-0.1s-4.2,0-5.7,0.1c-3.8,0.2-5.6,2-5.7,5.7c-0.1,1.5-0.1,1.9-0.1,5.7
		c0,3.7,0,4.2,0.1,5.7c0.2,3.8,1.9,5.6,5.7,5.7c1.5,0.1,1.9,0.1,5.7,0.1c3.7,0,4.2,0,5.7-0.1c3.8-0.2,5.6-2,5.7-5.7
		c0.1-1.5,0.1-1.9,0.1-5.7c0-3.7,0-4.2-0.1-5.7C31.2,10.6,29.5,8.8,25.7,8.6z M20,27.2c-4,0-7.2-3.2-7.2-7.2s3.2-7.2,7.2-7.2
		s7.2,3.2,7.2,7.2S24,27.2,20,27.2z M27.5,14.2c-0.9,0-1.7-0.8-1.7-1.7s0.8-1.7,1.7-1.7s1.7,0.8,1.7,1.7
		C29.2,13.5,28.4,14.2,27.5,14.2z"/>
	<path class="st0" d="M32,0H8C3.6,0,0,3.6,0,8v24c0,4.4,3.6,8,8,8h24c4.4,0,8-3.6,8-8V8C40,3.6,36.4,0,32,0z M33.9,25.8
		c-0.2,5.1-3.1,7.9-8.1,8.1C24.3,34,23.8,34,20,34s-4.3,0-5.8-0.1c-5.1-0.2-7.9-3.1-8.1-8.1C6,24.3,6,23.8,6,20s0-4.3,0.1-5.8
		c0.2-5.1,3.1-7.9,8.1-8.1C15.7,6,16.2,6,20,6s4.3,0,5.8,0.1c5.1,0.2,7.9,3.1,8.1,8.1c0.1,1.5,0.1,2,0.1,5.8S34,24.3,33.9,25.8z"/>
	<circle class="st0" cx="20" cy="20" r="4.7"/>
</g>
</svg>
