<?xml version="1.0" encoding="utf-8"?>
<!-- Generator: Adobe Illustrator 18.0.0, SVG Export Plug-In . SVG Version: 6.00 Build 0)  -->
<!DOCTYPE svg PUBLIC "-//W3C//DTD SVG 1.1//EN" "http://www.w3.org/Graphics/SVG/1.1/DTD/svg11.dtd">
<svg version="1.1" id="Ebene_1" xmlns="http://www.w3.org/2000/svg" xmlns:xlink="http://www.w3.org/1999/xlink" x="0px" y="0px"
	 viewBox="0 0 100 100" enable-background="new 0 0 100 100" xml:space="preserve">
<g>
	<path fill="#FFFFFF" d="M50.4,7C26.9,7,7.9,26,7.9,49.5C7.9,73,26.9,92,50.4,92c23.5,0,42.5-19,42.5-42.5C92.9,26,73.9,7,50.4,7z
		 M50.4,87.8c-21.1,0-38.3-17.1-38.3-38.3c0-21.1,17.1-38.3,38.3-38.3c21.1,0,38.3,17.1,38.3,38.3C88.7,70.7,71.5,87.8,50.4,87.8z"
		/>
	<path fill="#FFFFFF" d="M50.4,15.5c-18.8,0-34,15.2-34,34c0,13.1,7.4,24.4,18.2,30.1c-2.9-3.6-4.7-8.1-4.7-13.1
		C29.8,55.2,39,46,50.4,46s20.6,9.2,20.6,20.6c0,5-1.8,9.5-4.7,13.1c10.8-5.7,18.2-17,18.2-30.1C84.4,30.7,69.2,15.5,50.4,15.5z"/>
</g>
</svg>
