<?xml version="1.0" encoding="utf-8"?>
<!-- Generator: Adobe Illustrator 21.1.0, SVG Export Plug-In . SVG Version: 6.00 Build 0)  -->
<svg version="1.1" id="Ebene_1" xmlns="http://www.w3.org/2000/svg" xmlns:xlink="http://www.w3.org/1999/xlink" x="0px" y="0px"
	 viewBox="0 0 34.6 35" style="enable-background:new 0 0 34.6 35;" xml:space="preserve">
<path d="M26.6,0H8C3.6,0,0,3.6,0,8v19c0,4.4,3.6,8,8,8h18.6c4.4,0,8-3.6,8-8V8C34.6,3.6,31,0,26.6,0z M6.9,14.6
	c0.3,0.4,0.7,0.7,1.2,1c1.6,1.1,3,2,4,2.8l-5.2,5.2V14.6z M25.9,25.7H8.7c-0.5,0-0.9-0.2-1.2-0.5l5.9-5.9c0.1,0.1,0.3,0.2,0.4,0.3
	c0.4,0.3,0.8,0.6,1.1,0.8c0.3,0.2,0.6,0.4,1.1,0.6c0.5,0.2,0.9,0.3,1.3,0.3h0h0c0.4,0,0.8-0.1,1.3-0.3c0.5-0.2,0.8-0.4,1.1-0.6
	c0.3-0.2,0.6-0.4,1.1-0.8c0.1-0.1,0.3-0.2,0.4-0.3l5.9,5.9C26.7,25.5,26.3,25.7,25.9,25.7z M27.7,23.6l-5.2-5.2
	c1.1-0.8,2.5-1.7,4-2.8c0.4-0.3,0.8-0.6,1.2-1V23.6z M27.1,12.9c-0.4,0.6-0.9,1-1.4,1.4c-1.9,1.3-3.3,2.3-4.3,3
	c-0.5,0.4-0.9,0.6-1.2,0.8c0,0-0.1,0.1-0.2,0.1c-0.1,0.1-0.2,0.1-0.3,0.2c-0.3,0.2-0.5,0.3-0.6,0.4c-0.2,0.1-0.4,0.2-0.6,0.4
	c-0.2,0.1-0.5,0.2-0.7,0.3c-0.2,0.1-0.4,0.1-0.6,0.1h0h0c-0.2,0-0.4,0-0.6-0.1s-0.4-0.2-0.7-0.3c-0.2-0.1-0.4-0.3-0.6-0.4
	c-0.2-0.1-0.4-0.3-0.6-0.4c-0.1-0.1-0.2-0.2-0.3-0.2c-0.1-0.1-0.1-0.1-0.2-0.1c-0.3-0.2-0.7-0.5-1.2-0.8c-0.5-0.4-1.2-0.8-1.9-1.3
	c-1.3-0.9-2.1-1.5-2.4-1.7C8.4,14,8,13.6,7.5,13c-0.4-0.6-0.6-1.1-0.6-1.6c0-0.6,0.2-1.1,0.5-1.5c0.3-0.4,0.8-0.6,1.4-0.6h17.1
	c0.5,0,0.9,0.2,1.3,0.5c0.4,0.4,0.6,0.8,0.6,1.3C27.7,11.8,27.5,12.4,27.1,12.9z"/>
</svg>
