<?xml version="1.0" encoding="utf-8"?>
<!-- Generator: Adobe Illustrator 21.0.2, SVG Export Plug-In . SVG Version: 6.00 Build 0)  -->
<svg version="1.1" id="Ebene_1" xmlns="http://www.w3.org/2000/svg" xmlns:xlink="http://www.w3.org/1999/xlink" x="0px" y="0px"
	 viewBox="0 0 39.2 62.9" style="enable-background:new 0 0 39.2 62.9;" xml:space="preserve">
<style type="text/css">
	.st0{fill:#010202;}
</style>
<g>
	<path class="st0" d="M19.6,47.9c7.4,0,13.4-6,13.4-13.4V13.4C33,6,27,0,19.6,0S6.3,6,6.3,13.4v21.1C6.3,41.9,12.2,47.9,19.6,47.9z
		 M10.2,13.4c0-5.2,4.2-9.4,9.4-9.4c5.2,0,9.4,4.2,9.4,9.4v21.1c0,5.2-4.2,9.4-9.4,9.4c-5.2,0-9.4-4.2-9.4-9.4V13.4z"/>
	<path class="st0" d="M23.1,54.6c8.9,0,16.2-7.3,16.2-16.2c0-1.1-0.9-2-2-2c-1.1,0-2,0.9-2,2c0,6.7-5.5,12.2-12.2,12.2h-6.9
		C9.5,50.6,4,45.2,4,38.5c0-1.1-0.9-2-2-2s-2,0.9-2,2c0,8.9,7.3,16.2,16.2,16.2h1.5v4.3H8.2c-1.1,0-2,0.9-2,2c0,1.1,0.9,2,2,2H31
		c1.1,0,2-0.9,2-2c0-1.1-0.9-2-2-2h-9.4v-4.3H23.1z"/>
</g>
</svg>
