<svg viewBox="0 27.099 602 162.901">
  <path d="M601.146 33.725h-.9v-4.416h-.161l-1.668 3.236h-.573l-1.701-3.286h-.187v4.466h-.875v-5.034h1.704l1.392 2.735 1.35-2.735h1.619zM593.836 29.542h-1.622v4.183h-.926v-4.183h-1.628v-.851h4.176zM584.568 28.066l-25.529 115.18c-.872 3.738-4.72 6.809-8.547 6.809h-15.966c-3.848 0-6.276-3.07-5.424-6.809l23.967-108.371c.854-3.748 4.715-6.809 8.556-6.809h22.943zM517.245 60.348c-6.787-3.807-17.4-5.692-31.911-5.692-7.201 0-14.43.543-21.638 1.658-7.263 1.115-12.609 2.115-16.078 3l-3.02 15.335c-.718 3.768-.114 6.845 1.397 6.845 2.919-1.075 7.344-2.45 13.227-4.108 5.902-1.649 11.299-2.474 16.152-2.474 7.183 0 12.572.766 16.203 2.297 3.604 1.563 5.421 4.246 5.421 8.077 0 .913-.118 1.772-.278 2.522-.188.76-.336 1.309-.376 1.645-10.251.592-19.74 1.538-28.574 2.821-8.775 1.249-16.34 3.313-22.705 6.175-6.772 3.053-11.903 7.103-15.338 12.198-3.466 5.104-5.195 11.313-5.195 18.647 0 6.945 2.423 12.576 7.289 16.9 4.876 4.327 11.146 6.492 18.837 6.492 4.775 0 8.508-.349 11.217-1.016 2.7-.675 5.553-1.65 8.646-2.943 2.251-1.001 4.692-2.376 7.34-4.123a688.358 688.358 0 0 0 6.756-4.454l-2.295 9.904h22.459c3.838 0 7.681-3.069 8.552-6.809l13.026-56.305c.322-1.331.599-2.863.771-4.645.188-1.758.301-3.183.301-4.276 0-8.004-3.41-13.872-10.186-17.671zm-29.325 65.528a44.985 44.985 0 0 1-9.348 5.17c-3.314 1.349-6.397 2.039-9.327 2.039-4.435 0-7.829-.648-10.149-1.946-2.336-1.28-3.511-3.514-3.511-6.701 0-3.618.876-6.534 2.641-8.728 1.753-2.179 4.3-3.883 7.618-5.101 3.268-1.148 7.168-2.028 11.772-2.64a331.004 331.004 0 0 1 14.803-1.568l-4.499 19.475zM433.301 44.966c-2.245-4.307-5.55-7.823-9.826-10.519-4.391-2.713-9.546-4.601-15.532-5.7-5.984-1.093-12.989-1.648-21.061-1.648h-37.313c-3.846 0-7.679 3.046-8.552 6.784l-25.23 109.344c-.851 3.758 1.581 6.828 5.412 6.828h17.91c3.848 0 7.691-3.07 8.555-6.809l6.136-26.507c.848-3.738 4.707-6.813 8.549-6.813h5.118c21.827 0 38.823-4.466 51.003-13.431 12.149-8.967 18.239-20.765 18.239-35.398.001-6.441-1.115-11.816-3.408-16.131zm-38.592 35.731c-5.363 3.922-12.891 5.896-22.529 5.896h-4.459c-3.841 0-6.269-3.049-5.412-6.813l5.365-23.199c.875-3.738 4.708-6.791 8.547-6.791h5.838c6.871 0 12.033 1.158 15.504 3.482 3.481 2.282 5.221 5.831 5.221 10.622-.002 7.271-2.697 12.872-8.075 16.803z"/>
  <path d="M302.985 54.719c-3.845 0-8.892 3.068-11.204 6.809l-31.618 54.182-8.654-54.098c-.883-3.761-4.718-6.803-8.558-6.803h-15.964c-3.848 0-6.292 3.043-5.422 6.803l13.837 89.334c.249 1.932.5 3.564.736 4.95l-17.215 28.793c-2.315 3.743-1.063 6.811 2.801 6.811h18.507c3.841 0 8.866-3.067 11.176-6.811l77.061-129.97h-25.483zM201.857 60.55c-6.789-3.817-17.426-5.705-31.931-5.705-7.189 0-14.402.552-21.637 1.67-7.261 1.101-12.609 2.106-16.056 2.991l-3.014 15.346c-.751 3.772-.143 6.853 1.37 6.853 2.944-1.075 7.355-2.451 13.252-4.115 5.896-1.652 11.277-2.478 16.125-2.478 7.184 0 12.587.767 16.196 2.298 3.613 1.548 5.427 4.247 5.427 8.08 0 .919-.112 1.771-.251 2.512a22.078 22.078 0 0 0-.396 1.655c-10.244.59-19.752 1.535-28.551 2.805-8.787 1.257-16.364 3.329-22.729 6.188-6.779 3.051-11.907 7.102-15.344 12.206-3.464 5.096-5.185 11.304-5.185 18.632 0 6.945 2.424 12.588 7.307 16.907 4.847 4.315 11.144 6.495 18.82 6.495 4.775 0 8.523-.352 11.207-1.015a61.956 61.956 0 0 0 8.652-2.948c2.254-.999 4.706-2.373 7.354-4.109 2.606-1.727 4.894-3.228 6.734-4.464l-2.286 9.888h22.459c3.835 0 7.699-3.067 8.552-6.799l13.028-56.305c.335-1.32.592-2.871.771-4.643.202-1.77.288-3.182.288-4.276-.001-7.996-3.38-13.88-10.162-17.669zm-29.335 65.517a44.56 44.56 0 0 1-9.339 5.187c-3.308 1.347-6.418 2.034-9.321 2.034-4.453 0-7.84-.657-10.172-1.938-2.314-1.288-3.494-3.527-3.494-6.71 0-3.618.872-6.531 2.642-8.726 1.736-2.181 4.304-3.894 7.62-5.114 3.243-1.132 7.146-2.01 11.744-2.627a333.806 333.806 0 0 1 14.832-1.563l-4.512 19.457zM117.912 45.164c-2.248-4.304-5.542-7.829-9.846-10.512-4.364-2.705-9.552-4.598-15.517-5.701-5.997-1.107-13.005-1.652-21.085-1.652H34.177c-3.838 0-7.694 3.047-8.546 6.792L.392 143.426c-.868 3.751 1.566 6.818 5.396 6.818h17.921c3.833 0 7.696-3.067 8.549-6.799l6.133-26.517c.869-3.727 4.716-6.795 8.545-6.795h5.118c21.861 0 38.841-4.467 51.006-13.438 12.155-8.965 18.259-20.755 18.259-35.399 0-6.45-1.119-11.812-3.407-16.132zM79.309 80.905c-5.382 3.918-12.874 5.897-22.538 5.897h-4.434c-3.867 0-6.29-3.068-5.424-6.813l5.362-23.196C53.127 53.052 56.994 50 60.826 50h5.853c6.84 0 12.02 1.155 15.492 3.478 3.483 2.289 5.213 5.838 5.213 10.621.001 7.255-2.688 12.86-8.075 16.806z"/>
</svg>
