<svg xmlns="http://www.w3.org/2000/svg" width="128" height="128" viewBox="0 0 128 128">
  <metadata><?xpacket begin="﻿" id="W5M0MpCehiHzreSzNTczkc9d"?>
<x:xmpmeta xmlns:x="adobe:ns:meta/" x:xmptk="Adobe XMP Core 5.6-c138 79.159824, 2016/09/14-01:09:01        ">
   <rdf:RDF xmlns:rdf="http://www.w3.org/1999/02/22-rdf-syntax-ns#">
      <rdf:Description rdf:about=""/>
   </rdf:RDF>
</x:xmpmeta>
                                                                                                    
                                                                                                    
                                                                                                    
                                                                                                    
                                                                                                    
                                                                                                    
                                                                                                    
                                                                                                    
                                                                                                    
                                                                                                    
                                                                                                    
                                                                                                    
                                                                                                    
                                                                                                    
                                                                                                    
                                                                                                    
                                                                                                    
                                                                                                    
                                                                                                    
                                                                                                    
                           
<?xpacket end="w"?></metadata>
<defs>
    <style>
      .cls-1 {
        fill: #7a7a7a;
        fill-rule: evenodd;
      }
    </style>
  </defs>
  <path id="Auricular_Phone_Symbol_In_A_Circle" data-name="Auricular Phone Symbol In A Circle" class="cls-1" d="M1816,1320a56,56,0,1,1-56,56,56.068,56.068,0,0,1,56-56m0-8a64,64,0,1,0,64,64,64.008,64.008,0,0,0-64-64h0Zm35.68,85.4-0.36-1.1a10.111,10.111,0,0,0-6.19-5.84l-9.46-2.58a9.259,9.259,0,0,0-8.1,2.12l-3.42,3.42a36.343,36.343,0,0,1-25.56-25.56l3.43-3.42a9.276,9.276,0,0,0,2.11-8.1l-2.58-9.46a10.074,10.074,0,0,0-5.85-6.19l-1.07-.36a8.546,8.546,0,0,0-8,1.89l-5.13,5.12c-0.91.91-1.5,3.51-1.5,3.52a60.426,60.426,0,0,0,60.99,61.13c0.09,0,2.77-.57,3.68-1.48l5.13-5.13A8.562,8.562,0,0,0,1851.68,1397.4Z" transform="translate(-1752 -1312)"/>
</svg>
