<?xml version="1.0" encoding="utf-8"?>
<!-- Generator: Adobe Illustrator 21.0.2, SVG Export Plug-In . SVG Version: 6.00 Build 0)  -->
<svg version="1.1" id="Ebene_1" xmlns="http://www.w3.org/2000/svg" xmlns:xlink="http://www.w3.org/1999/xlink" x="0px" y="0px"
	 viewBox="0 0 64 64" style="enable-background:new 0 0 64 64;" xml:space="preserve">
<style type="text/css">
	.st0{fill:#010202;}
</style>
<path class="st0" d="M32,4c15.4,0,28,12.6,28,28S47.4,60,32,60S4,47.4,4,32S16.6,4,32,4 M32,0C14.3,0,0,14.3,0,32s14.3,32,32,32
	s32-14.3,32-32S49.7,0,32,0L32,0z M49.8,42.7c-0.2-0.7-0.5-1.3-0.9-1.8c-0.6-0.8-1.4-1.3-2.4-1.6c0,0-4.7-1.3-4.7-1.3
	c-1.3-0.3-3.1,0.1-4.1,1.1L36,40.8c-6.1-1.8-11-6.7-12.7-12.9l1.7-1.7c0.9-0.9,1.4-2.8,1.1-4.1c0,0-1.3-4.7-1.3-4.7
	c-0.3-1.3-1.3-2.2-2.3-2.8c-1.1-0.6-2.3-0.8-3.6-0.4c-0.5,0.2-1,0.4-1.4,0.8c0,0-2.6,2.6-2.6,2.6c-0.5,0.5-0.8,1.8-0.8,1.8
	c-0.1,8.1,3.1,16,8.9,21.7c5.7,5.7,13.5,8.9,21.6,8.8c0,0,1.4-0.3,1.8-0.7c0,0,2.6-2.6,2.6-2.6C50,45.6,50.2,44.1,49.8,42.7z"/>
</svg>
