<svg xmlns="http://www.w3.org/2000/svg" width="44" height="44" viewBox="0 0 44 44">
  <metadata><?xpacket begin="﻿" id="W5M0MpCehiHzreSzNTczkc9d"?>
<x:xmpmeta xmlns:x="adobe:ns:meta/" x:xmptk="Adobe XMP Core 5.6-c138 79.159824, 2016/09/14-01:09:01        ">
   <rdf:RDF xmlns:rdf="http://www.w3.org/1999/02/22-rdf-syntax-ns#">
      <rdf:Description rdf:about=""/>
   </rdf:RDF>
</x:xmpmeta>
                                                                                                    
                                                                                                    
                                                                                                    
                                                                                                    
                                                                                                    
                                                                                                    
                                                                                                    
                                                                                                    
                                                                                                    
                                                                                                    
                                                                                                    
                                                                                                    
                                                                                                    
                                                                                                    
                                                                                                    
                                                                                                    
                                                                                                    
                                                                                                    
                                                                                                    
                                                                                                    
                           
<?xpacket end="w"?></metadata>
<defs>
    <style>
      .cls-1 {
        fill: #3180ca;
        fill-rule: evenodd;
      }
    </style>
  </defs>
  <path id="print_icon" data-name="print icon" class="cls-1" d="M1280.75,2459h-27.5v19.25h27.5V2459Zm-2.75,16.5h-22v-13.75h22v13.75Zm5.5,2.75V2481h-33v-2.75a5.5,5.5,0,0,0-5.5,5.5v16.5a2.748,2.748,0,0,0,2.75,2.75h38.5a2.748,2.748,0,0,0,2.75-2.75v-16.5A5.5,5.5,0,0,0,1283.5,2478.25Zm-2.75,19.25a2.748,2.748,0,0,1-2.75,2.75h-22a2.748,2.748,0,0,1-2.75-2.75v-2.75h27.5v2.75Zm-22-33h16.5v2.75h-16.5v-2.75Zm0,5.5h16.5v2.75h-16.5V2470Z" transform="translate(-1245 -2459)"/>
</svg>
