<?xml version="1.0" encoding="utf-8"?>
<!-- Generator: Adobe Illustrator 21.0.2, SVG Export Plug-In . SVG Version: 6.00 Build 0)  -->
<svg version="1.1" id="Ebene_1" xmlns="http://www.w3.org/2000/svg" xmlns:xlink="http://www.w3.org/1999/xlink" x="0px" y="0px"
	 viewBox="0 0 44 44" style="enable-background:new 0 0 44 44;" xml:space="preserve">
<style type="text/css">
	.st0{fill:#010202;}
</style>
<g>
	<path class="st0" d="M35.7,0H8.2v19.2h27.5V0z M33,16.5H11V2.7h22V16.5z"/>
	<path class="st0" d="M38.5,19.2V22h-33v-2.8c-3,0-5.5,2.5-5.5,5.5v16.5C0,42.8,1.2,44,2.8,44h38.5c1.5,0,2.7-1.2,2.7-2.8V24.7
		C44,21.7,41.5,19.2,38.5,19.2z M35.7,38.5c0,1.5-1.2,2.7-2.7,2.7H11c-1.5,0-2.8-1.2-2.8-2.7v-2.8h27.5V38.5z"/>
	<rect x="13.7" y="5.5" class="st0" width="16.5" height="2.7"/>
	<rect x="13.7" y="11" class="st0" width="16.5" height="2.7"/>
</g>
</svg>
