<?xml version="1.0" encoding="UTF-8"?>
<svg width="12px" height="13px" viewBox="0 0 12 13" version="1.1" xmlns="http://www.w3.org/2000/svg" xmlns:xlink="http://www.w3.org/1999/xlink">
    <!-- Generator: Sketch 47.1 (45422) - http://www.bohemiancoding.com/sketch -->
    <title>Shape</title>
    <desc>Created with Sketch.</desc>
    <defs></defs>
    <g id="Webapp" stroke="none" stroke-width="1" fill="none" fill-rule="evenodd">
        <g id="Address-/-Desktop" transform="translate(-212.000000, -683.000000)" fill-rule="nonzero" fill="#000000">
            <g id="refresh-68" transform="translate(212.000000, 683.000000)">
                <path d="M10.9090909,6.7826087 C10.9090909,9.58778261 8.70709091,11.8695652 6,11.8695652 C3.29290909,11.8695652 1.09090909,9.58778261 1.09090909,6.7826087 C1.09090909,3.97743478 3.29290909,1.69565217 6,1.69565217 C7.08490909,1.69565217 8.11254545,2.06304348 8.96181818,2.73169565 L6.996,4.64947826 L11.9961818,5.20508696 L11.7610909,0 L9.76745455,1.94547826 C8.70381818,1.05243478 7.38818182,0.565217391 6,0.565217391 C2.69181818,0.565217391 0,3.35456522 0,6.7826087 C0,10.2106522 2.69181818,13 6,13 C9.30818182,13 12,10.2106522 12,6.7826087 L10.9090909,6.7826087 Z" id="Shape"></path>
            </g>
        </g>
    </g>
</svg>