<svg viewBox="0 0 400 221.2">
  <g>
    <path d="M363.9 60.9c0-5.6-4.5-10.1-10-10.1s-10 4.5-10 10.1v7.6H364v-7.6zM338.8 98.8H369V73.5h-30.1v25.3zm15.4-18.2c3 0 5.4 2.4 5.4 5.4 0 2.1-1.2 3.9-2.9 4.8.5-.6.7-1.3.7-2.1 0-1.8-1.5-3.3-3.3-3.3-1.8 0-3.3 1.5-3.3 3.3 0 .8.3 1.6.8 2.2-1.8-.9-3-2.7-3-4.9.2-3 2.6-5.4 5.6-5.4z"/>
    <path d="M400 76.9c0-26-21.1-47.1-47.2-47.1-12.5 0-23.8 4.8-32.2 12.7C306.1 17.2 278.6 0 247.4 0c-30 0-57.9 16.5-72.9 43l-8.6 15.3-17.4-3.1c-4.1-.7-7.2-1-9.9-1-23.9 0-45.4 15.3-53.4 38.1L79 109.8l-18.9-1.2c-1.1-.1-2.3-.2-3.7-.4H56c-30.9.4-56 25.8-56 56.5 0 31.2 25.5 56.5 56.9 56.5h272.2c31.4 0 56.9-25.3 56.9-56.5 0-16.7-7.6-32.1-20-42.6 19.7-5.8 34-23.8 34-45.2zm-18.9 87.8c0 28.5-23.3 51.6-52 51.6H56.9c-28.7 0-52-23.2-52-51.6 0-28 22.9-51.1 51-51.6 1.5.2 2.8.3 3.9.4l22.5 1.5 7.4-21.1c7.3-20.8 26.9-34.8 48.8-34.8 2.5 0 5.3.3 9.1 1l20.8 3.7 10.3-18.3C192.8 20.5 219.2 5 247.4 5c29.9 0 56.1 16.7 69.6 41.3-7.1 8.2-11.5 19-11.5 30.7 0 26 21.1 47.1 47.2 47.1 2.4 0 4.8-.2 7.1-.5 13.2 9.3 21.3 24.5 21.3 41.1zM374 98.8c0 2.8-2.3 5-5 5h-30.1c-2.8 0-5-2.3-5-5V73.5c0-2.8 2.2-5 5-5v-7.6c0-8.4 6.7-15.1 15.1-15.1 8.3 0 15.1 6.8 15.1 15.1v7.6c2.8 0 5 2.3 5 5v25.3z"/>
  </g>
  <g>
    <path d="M109.5 173.4c-4.9 0-8.8-1.1-12-4.2l2.8-2.8c2.3 2.4 5.4 3.4 9.1 3.4 4.8 0 7.8-1.7 7.8-5.2 0-2.5-1.5-4-4.9-4.3l-4.8-.4c-5.7-.5-8.7-3-8.7-7.8 0-5.3 4.5-8.5 10.7-8.5 4.1 0 7.9 1 10.5 3.1l-2.8 2.8c-2.1-1.6-4.7-2.3-7.8-2.3-4.3 0-6.5 1.8-6.5 4.8 0 2.5 1.4 4 5.1 4.3l4.7.4c5.1.5 8.6 2.4 8.6 7.9.1 5.6-4.7 8.8-11.8 8.8zM163.9 173.1v-18c0-5.2-2.8-7.8-7.2-7.8-4.3 0-7.3 2.7-7.3 7.3V173h-4.3v-18c0-5.2-2.8-7.8-7.2-7.8s-7.3 2.7-7.3 7.8v18h-4.3v-29.2h4.3v3.2c2.1-2.4 5-3.6 8.2-3.6 4 0 7.2 1.7 8.9 4.9 2.2-3.2 5.5-4.9 9.6-4.9 3.1 0 5.7 1 7.5 2.7 2.1 2 3.1 4.7 3.1 8.1v18.7h-4zM191.7 173.1v-2.8c-2.4 2.4-4.5 3.1-8.4 3.1-4 0-6.4-.8-8.2-2.7-1.4-1.4-2.2-3.6-2.2-5.9 0-5.1 3.6-8.4 10.1-8.4h8.8v-2.8c0-4.3-2.1-6.4-7.5-6.4-3.7 0-5.6.9-7.3 3.3l-2.9-2.7c2.6-3.4 5.6-4.3 10.3-4.3 7.8 0 11.7 3.4 11.7 9.7V173h-4.4zm0-13.5h-8.2c-4.4 0-6.5 1.8-6.5 5.2s2.1 5 6.7 5c2.5 0 4.7-.2 6.5-2 1-.9 1.5-2.6 1.5-5v-3.2zM219.4 149.5c-1.6-1.6-2.8-2.1-5-2.1-4.3 0-7 3.4-7 7.8v17.9h-4.3v-29.2h4.3v3.6c1.6-2.4 4.8-3.9 8.2-3.9 2.8 0 4.9.7 7 2.7l-3.2 3.2zM234.9 173.1c-5 0-7.5-3.5-7.5-7.8v-17.9h-3.7v-3.3h3.7V135h4.3v9.1h6.2v3.3h-6.2v17.8c0 2.7 1.2 4.3 4 4.3h2.2v3.7h-3zM256.5 130.7v3.7h-2.3c-2.7 0-3.9 1.6-3.9 4.3v5.4h6.2v3.3h-6.2v25.7H246v-25.7h-3.7v-3.3h3.7v-5.5c0-4.3 2.4-7.8 7.4-7.8h3.1zM277.4 149.5c-1.6-1.6-2.8-2.1-5-2.1-4.3 0-7 3.4-7 7.8v17.9h-4.3v-29.2h4.3v3.6c1.6-2.4 4.8-3.9 8.2-3.9 2.8 0 4.9.7 7 2.7l-3.2 3.2zM300.8 170.1c-2 2-4.8 3.3-8.3 3.3-3.6 0-6.3-1.3-8.3-3.3-3-3-3.6-7.1-3.6-11.6s.6-8.6 3.6-11.6c2-2 4.8-3.3 8.3-3.3 3.6 0 6.3 1.3 8.3 3.3 3 3 3.6 7.1 3.6 11.6-.1 4.5-.7 8.6-3.6 11.6zm-3.1-20.6c-1.4-1.4-3.3-2.1-5.3-2.1-2.1 0-3.9.8-5.3 2.1-2.1 2.1-2.4 5.8-2.4 9 0 3.3.2 6.9 2.4 9 1.4 1.4 3.2 2.1 5.3 2.1 2.1 0 4-.8 5.3-2.1 2.1-2.1 2.3-5.8 2.3-9 .1-3.3-.1-6.9-2.3-9zM319.5 186.5c-4.4 0-6.8-1.1-9.9-3.9l2.8-2.7c2.1 1.9 3.6 2.9 7 2.9 5.6 0 8-4 8-9v-4.6c-2.4 3-5 3.8-8.2 3.8-3 0-5.5-1.1-7-2.6-2.9-2.9-3.6-7.4-3.6-12.2 0-4.7.7-9.3 3.6-12.2 1.5-1.5 4.1-2.5 7.1-2.5 3.2 0 5.8.7 8.2 3.8v-3.4h4.2V174c0 7.2-4.5 12.5-12.2 12.5zm.7-39.2c-6.3 0-7.3 5.5-7.3 10.9 0 5.5.9 10.9 7.3 10.9 6.3 0 7.2-5.5 7.2-10.9s-.9-10.9-7.2-10.9z"/>
  </g>
  <g>
    <path d="M214.6 75.1c-15.4 0-27.9 12.5-27.9 27.9 0 15.4 12.5 27.9 27.9 27.9 15.4 0 27.9-12.5 27.9-27.9 0-15.4-12.5-27.9-27.9-27.9zm0 53c-13.9 0-25.1-11.2-25.1-25.1 0-13.9 11.2-25.1 25.1-25.1 13.9 0 25.1 11.2 25.1 25.1 0 13.8-11.2 25.1-25.1 25.1z"/>
    <path d="M214.6 80.7c-12.3 0-22.3 10-22.3 22.3 0 8.6 4.8 16 11.9 19.7-1.9-2.3-3.1-5.3-3.1-8.6 0-7.4 6-13.5 13.5-13.5 7.4 0 13.5 6 13.5 13.5 0 3.3-1.2 6.3-3.1 8.6 7.1-3.7 11.9-11.2 11.9-19.7 0-12.3-10-22.3-22.3-22.3z"/>
  </g>
</svg>
