<?xml version="1.0" encoding="utf-8"?>
<!-- Generator: Adobe Illustrator 21.0.2, SVG Export Plug-In . SVG Version: 6.00 Build 0)  -->
<svg version="1.1" id="Ebene_1" xmlns="http://www.w3.org/2000/svg" xmlns:xlink="http://www.w3.org/1999/xlink" x="0px" y="0px"
	 viewBox="0 0 57 47" style="enable-background:new 0 0 57 47;" xml:space="preserve">
<g>
	<path d="M52.3,31.4L57,6.4l-44.4,0L11,0H0v4.3h7.6l7,27.2H52.3z M51.8,10.6l-3.1,16.5H17.9l-4.2-16.5L51.8,10.6z"/>
	<path d="M46.3,33.3H20.5c-3.8,0-6.9,3.1-6.9,6.8c0,3.8,3.1,6.8,6.9,6.8c3.8,0,6.9-3.1,6.9-6.8c0-0.9-0.2-1.8-0.5-2.6H40
		c-0.3,0.8-0.5,1.7-0.5,2.6c0,3.8,3.1,6.8,6.9,6.8c3.8,0,6.9-3.1,6.9-6.8C53.2,36.4,50.1,33.3,46.3,33.3z M20.5,42.7
		c-1.4,0-2.6-1.1-2.6-2.6c0-1.4,1.2-2.6,2.6-2.6c1.4,0,2.6,1.1,2.6,2.6C23.1,41.6,21.9,42.7,20.5,42.7z M46.3,42.7
		c-1.4,0-2.6-1.1-2.6-2.6c0-1.4,1.2-2.6,2.6-2.6c1.4,0,2.6,1.1,2.6,2.6C48.9,41.6,47.8,42.7,46.3,42.7z"/>
</g>
</svg>
