<?xml version="1.0" encoding="utf-8"?>
<!-- Generator: Adobe Illustrator 21.0.2, SVG Export Plug-In . SVG Version: 6.00 Build 0)  -->
<svg version="1.1" id="Ebene_1" xmlns="http://www.w3.org/2000/svg" xmlns:xlink="http://www.w3.org/1999/xlink" x="0px" y="0px"
	 viewBox="0 0 41 29" style="enable-background:new 0 0 41 29;" xml:space="preserve">
<g>
	<path d="M41,3.7c0-0.2-0.4-1.5-2.6-2.8c-2.2-1.3-3.6-0.9-3.7-0.8c-0.2,0.1-0.4,0.2-0.5,0.4L23.6,19c-0.1,0.1-0.1,0.2-0.1,0.4
		L23,26.1c0,0.3,0.1,0.6,0.4,0.8c0.3,0.2,0.6,0.2,0.9,0l5.6-3.7c0.1-0.1,0.2-0.2,0.3-0.3L40.9,4.3C41,4.1,41.1,3.9,41,3.7z
		 M26.5,23.9c-0.3-0.2-0.6-0.4-1-0.6c-0.3-0.2-0.7-0.4-1-0.5l0.1-2c0.4,0.1,1.1,0.2,1.9,0.7c0.8,0.5,1.3,1,1.6,1.3L26.5,23.9z"/>
	<path d="M20.1,24.9c-2.6,0-4.8-0.7-7.4-0.2c0-0.2-0.1-0.4-0.2-0.6c-0.5-0.8-1.1-1.1-1.7-1c0-0.1-0.1-0.2-0.1-0.3
		c-0.2-0.3-0.4-0.4-0.6-0.5c0.7-1.3,1.2-2.6,0.7-3.8c-0.1-0.3-0.6-0.5-0.9-0.5c-1.4-0.1-2.6,1.4-3.5,2.3c-2.2,2.2-4.2,4.7-6.1,7.2
		c-0.8,1.1,1,2.1,1.8,1.1c1.7-2.2,3.5-4.4,5.4-6.4c-0.5,0.8-0.9,1.5-1.5,2.2c-0.7,1.2,1,2.1,1.8,1.1c0.2-0.3,0.4-0.5,0.7-0.7
		c-0.1,0.1-0.1,0.3-0.2,0.4c0,0,0,0,0,0c0,0.1-0.1,0.2-0.1,0.2c-0.5,1.2,1.3,1.7,1.9,0.8c0.2-0.2,0.3-0.5,0.4-0.7c0,0.2,0,0.4,0,0.6
		c0.1,0.6,0.7,0.7,1.2,0.9c0.4,0.2,0.9-0.2,1.2-0.3c2.1-1,5,0.2,7.2,0.2C21.4,27,21.4,24.9,20.1,24.9z"/>
</g>
</svg>
