<?xml version="1.0" encoding="utf-8"?>
<!-- Generator: Adobe Illustrator 21.0.2, SVG Export Plug-In . SVG Version: 6.00 Build 0)  -->
<svg version="1.1" id="Ebene_1" xmlns="http://www.w3.org/2000/svg" xmlns:xlink="http://www.w3.org/1999/xlink" x="0px" y="0px"
	 viewBox="0 0 64 59" style="enable-background:new 0 0 64 59;" xml:space="preserve">
<g>
	<path d="M63.9,24.9c-0.2-0.5-0.7-0.8-1.2-0.8h-4C56.1,10.4,44.1,0,29.6,0C13.3,0,0,13.2,0,29.5C0,45.8,13.3,59,29.6,59
		c10.5,0,20.3-5.6,25.6-14.7c0.7-1.3,0.3-2.9-1-3.7c-1.3-0.7-2.9-0.3-3.7,1c-4.3,7.4-12.4,12.1-21,12.1c-13.3,0-24.2-10.8-24.2-24.1
		c0-13.3,10.9-24.1,24.2-24.1c11.5,0,21.1,8,23.6,18.8h-4c-0.5,0-1,0.3-1.2,0.8c-0.2,0.5-0.1,1,0.2,1.4l6.7,8c0.3,0.3,0.6,0.5,1,0.5
		c0.4,0,0.8-0.2,1-0.5l6.7-8C64,25.9,64.1,25.4,63.9,24.9z"/>
	<path d="M29.6,6.7c-1.5,0-2.7,1.2-2.7,2.7v16.3c-1.2,0.9-2,2.3-2,3.8c0,2.6,2.1,4.7,4.7,4.7c0.7,0,1.4-0.2,2-0.5l9.4,5.4
		c0.4,0.2,0.9,0.4,1.3,0.4c0.9,0,1.8-0.5,2.3-1.3c0.7-1.3,0.3-2.9-1-3.7l-9.4-5.4c-0.1-1.4-0.9-2.7-2-3.4V9.4
		C32.3,7.9,31.1,6.7,29.6,6.7z M29.6,31.5c-1.1,0-2-0.9-2-2c0-1.1,0.9-2,2-2c1.1,0,2,0.9,2,2C31.6,30.6,30.7,31.5,29.6,31.5z"/>
</g>
</svg>
