<?xml version="1.0" encoding="utf-8"?>
<!-- Generator: Adobe Illustrator 21.0.2, SVG Export Plug-In . SVG Version: 6.00 Build 0)  -->
<svg version="1.1" id="Ebene_1" xmlns="http://www.w3.org/2000/svg" xmlns:xlink="http://www.w3.org/1999/xlink" x="0px" y="0px"
	 viewBox="0 0 40 40" style="enable-background:new 0 0 40 40;" xml:space="preserve">
<style type="text/css">
	.st0{fill:#010202;}
</style>
<path class="st0" d="M32,0H8C3.6,0,0,3.6,0,8v24c0,4.4,3.6,8,8,8h24c4.4,0,8-3.6,8-8V8C40,3.6,36.4,0,32,0z M31,15.5
	c-0.2,9.2-6,15.6-14.8,16c-3.6,0.2-6.2-1-8.6-2.4c2.6,0.4,6-0.6,7.8-2.2c-2.6-0.2-4.2-1.6-5-3.8c0.8,0.2,1.6,0,2.2,0
	c-2.4-0.8-4-2.2-4.2-5.4c0.6,0.4,1.4,0.6,2.2,0.6c-1.8-1-3-4.8-1.6-7.2c2.6,2.8,5.8,5.2,11,5.6c-1.4-5.6,6.2-8.6,9.2-4.8
	c1.4-0.2,2.4-0.8,3.4-1.2c-0.4,1.4-1.2,2.2-2.2,3c1-0.2,2-0.4,2.8-0.8C33,13.9,32,14.7,31,15.5z"/>
</svg>
