<?xml version="1.0" encoding="utf-8"?>
<!-- Generator: Adobe Illustrator 21.0.2, SVG Export Plug-In . SVG Version: 6.00 Build 0)  -->
<svg version="1.1" id="Ebene_1" xmlns="http://www.w3.org/2000/svg" xmlns:xlink="http://www.w3.org/1999/xlink" x="0px" y="0px"
	 viewBox="0 0 40 40" style="enable-background:new 0 0 40 40;" xml:space="preserve">
<g>
	<path d="M32,0H8C3.6,0,0,3.6,0,8v24c0,4.4,3.6,8,8,8h24c4.4,0,8-3.6,8-8V8C40,3.6,36.4,0,32,0z M33.6,27.2c-0.3,1.5-1.5,2.6-3,2.8
		c-3.4,0.4-6.9,0.4-10.4,0.4c-3.5,0-6.9,0-10.4-0.4c-1.5-0.2-2.7-1.3-3-2.8c-0.5-2.1-0.5-4.5-0.5-6.7c0-2.2,0-4.5,0.5-6.7
		c0.3-1.5,1.5-2.6,3-2.8c3.4-0.4,6.9-0.4,10.4-0.4c3.5,0,6.9,0,10.4,0.4c1.5,0.2,2.7,1.3,3,2.8c0.5,2.1,0.5,4.5,0.5,6.7
		C34,22.7,34,25,33.6,27.2z"/>
	<path d="M16.6,24.9c2.9-1.6,5.9-3.1,8.8-4.7c-3-1.6-5.9-3.1-8.8-4.7C16.6,18.7,16.6,21.8,16.6,24.9z"/>
</g>
</svg>
