<?xml version="1.0" encoding="utf-8"?>
<!-- Generator: Adobe Illustrator 21.0.2, SVG Export Plug-In . SVG Version: 6.00 Build 0)  -->
<svg version="1.1" id="Ebene_1" xmlns="http://www.w3.org/2000/svg" xmlns:xlink="http://www.w3.org/1999/xlink" x="0px" y="0px"
	 viewBox="0 0 59 61" style="enable-background:new 0 0 59 61;" xml:space="preserve">
<style type="text/css">
	.st0{fill:#010202;}
</style>
<g>
	<path class="st0" d="M58.4,57.3L41,39.8c3.9-4.2,6.3-9.9,6.3-16.1C47.3,10.7,36.7,0,23.6,0C10.6,0,0,10.7,0,23.7
		c0,13.1,10.6,23.7,23.6,23.7c5.3,0,10.2-1.8,14.2-4.7l17.6,17.6c0.4,0.4,1,0.6,1.5,0.6c0.5,0,1.1-0.2,1.5-0.6
		C59.2,59.5,59.2,58.2,58.4,57.3z M23.6,43.1C13,43.1,4.3,34.5,4.3,23.7C4.3,13,12.9,4.3,23.6,4.3C34.3,4.3,43,13,43,23.7
		C43,34.5,34.3,43.1,23.6,43.1z"/>
	<path class="st0" d="M32.8,21.5H26v-6.8c0-1.2-1-2.1-2.1-2.1c-1.2,0-2.1,1-2.1,2.1v6.8h-6.8c-1.2,0-2.1,1-2.1,2.1
		c0,1.2,1,2.1,2.1,2.1h6.8v6.8c0,1.2,1,2.1,2.1,2.1c1.2,0,2.1-1,2.1-2.1v-6.8h6.8c1.2,0,2.1-1,2.1-2.1C34.9,22.5,34,21.5,32.8,21.5z
		"/>
</g>
</svg>
