<svg xmlns="http://www.w3.org/2000/svg" xmlns:xlink="http://www.w3.org/1999/xlink" width="234" height="190" viewBox="0 0 234 190">
    <defs>
        <path id="a" d="M0 .774h234V190H0z"/>
        <path id="c" d="M.617.83H155V115H.617z"/>
    </defs>
    <g fill="none" fill-rule="evenodd">
        <path fill="#F18713" d="M8.94 183.137h216.21V63.02H8.94z"/>
        <g>
            <mask id="b" fill="#fff">
                <use xlink:href="#a"/>
            </mask>
            <path fill="#E20D00" d="M221.377 174.745c0 .883 0 2.524-2.633 2.632h-98.787V67.013h98.787c.882 0 2.526 0 2.633 2.633v105.1zM180.141 17.107c4.488-.125 8.096 1.763 11.377 5.942 4.055 5.164 3.551 8.386 2.82 10.361-2.436 6.574-13.575 13.9-30.562 20.097-.831.303-1.659.597-2.484.883h-28.853c11.155-14.224 32.122-36.848 47.702-37.283zm-72.806 160.27H15.256c-.944 0-2.525 0-2.633-2.632V69.646c0-.879-.001-2.512 2.713-2.633h91.999v110.364zM64.156 51.65c-16.853-6.46-27.85-13.953-30.17-20.555-.699-1.989-1.146-5.224 3.019-10.337 3.373-4.142 7.035-5.975 11.541-5.769 16.067.738 37.409 25.16 47.969 39.402H71.834a184.558 184.558 0 0 1-7.678-2.74zm154.588 2.741h-24.927c7.05-4.95 11.706-10.305 13.832-16.039 2.041-5.499 2.835-14.14-4.962-24.072-6.039-7.69-13.978-11.625-22.955-11.366-21.49.608-44.572 25.407-56.343 40.02-2.292-2.934-5.854-4.827-9.865-4.827a12.48 12.48 0 0 0-8.79 3.61C93.249 26.927 70.672 1.797 49.209.803 40.197.392 32.19 4.187 25.996 11.79 18 21.606 18.644 30.27 20.592 35.81c2.343 6.66 8.033 12.871 16.945 18.581H15.256C9.124 54.39 0 58.453 0 69.646v105.1C0 180.876 4.064 190 15.256 190h203.488c6.133 0 15.256-4.063 15.256-15.255V69.646c0-6.13-4.062-15.256-15.256-15.256z" mask="url(#b)"/>
        </g>
        <g transform="translate(79 75)">
            <mask id="d" fill="#fff">
                <use xlink:href="#c"/>
            </mask>
            <path fill="#FFF" fill-opacity=".9" d="M155 91.984V28.59C139.419 9.303 109.673-1.994 76.988 1.442 31.348 6.238-2.728 37.936.879 72.24 2.77 90.237 14.667 105.366 32.131 115h94.619c11.666-5.926 21.363-13.858 28.25-23.016" mask="url(#d)"/>
        </g>
        <path fill="#E20D00" d="M116.083 128.274l-4.682.562-2.203-18.329-4.354 2.313-.467-3.89 8.322-4.629.495-.059zM134.477 101.718l6.62 16.81 2.43-17.898 6.329-.762 2.885 24-4.864.584-.78-6.494-.758-10.058-2.813 17.076-3.296.395-6.78-15.922 1.649 9.952.78 6.494-4.846.583-2.885-24zM159.537 114.61c.386 3.207 1.43 4.707 3.133 4.502 1.571-.189 2.257-1.628 2.055-4.318l-.22-1.976c-.197-1.636-.568-2.822-1.114-3.559-.544-.735-1.23-1.055-2.054-.957-.79.096-1.362.567-1.712 1.411-.35.842-.427 2.084-.23 3.72l.142 1.177zm-4.822-.61c-.325-2.704.057-4.902 1.147-6.593 1.09-1.693 2.761-2.673 5.014-2.944 2.274-.274 4.14.282 5.601 1.668 1.46 1.384 2.353 3.44 2.68 6.166l.137 1.136c.326 2.714-.05 4.911-1.13 6.59-1.08 1.68-2.758 2.655-5.032 2.93-2.286.274-4.156-.279-5.61-1.659-1.453-1.379-2.343-3.433-2.67-6.159l-.137-1.136zM175.321 103.06l.344 1.748c.886-1.52 2.182-2.386 3.885-2.59 3.066-.368 4.901 1.59 5.505 5.876l1.41 11.72-4.682.562-1.367-11.374c-.12-1.01-.36-1.724-.717-2.145-.358-.42-.915-.584-1.674-.492-.846.1-1.453.615-1.82 1.54l1.556 12.956-4.68.561-2.145-17.834 4.385-.527zM195.13 115.394c.517-.062.943-.22 1.28-.471.338-.253.577-.532.72-.84l-.446-3.707-1.121.135c-.791.095-1.385.423-1.78.983-.395.559-.542 1.262-.44 2.109.158 1.318.754 1.916 1.787 1.79zm3.153 3c-.165-.26-.352-.705-.562-1.338-.697 1.244-1.762 1.95-3.19 2.122-1.494.18-2.793-.165-3.895-1.036-1.102-.87-1.748-2.092-1.937-3.663-.224-1.87.198-3.385 1.268-4.55 1.069-1.166 2.724-1.893 4.963-2.185l1.417-.17-.172-1.434c-.097-.802-.303-1.351-.616-1.65-.315-.295-.736-.412-1.263-.35-1.165.142-1.666.893-1.502 2.256l-4.665.56c-.198-1.648.257-3.083 1.364-4.302 1.108-1.221 2.607-1.944 4.496-2.171 1.956-.235 3.532.09 4.725.978 1.193.888 1.904 2.277 2.13 4.166l1.01 8.39c.207 1.537.57 2.714 1.092 3.53l.035.282-4.698.565zM208.452 94.63l.527 4.385 2.39-.287.42 3.495-2.39.287 1.066 8.864c.085.705.24 1.177.463 1.418.223.242.61.329 1.16.264.45-.055.814-.138 1.091-.25l.403 3.632a7.367 7.367 0 0 1-2.519.753c-3.01.362-4.74-1.182-5.188-4.632l-1.14-9.49-2.06.25-.42-3.496 2.06-.248-.528-4.383 4.665-.561zM117.453 160.8c.274 2.278.77 3.902 1.487 4.872.718.97 1.722 1.376 3.013 1.22 1.322-.158 2.244-.754 2.767-1.787l-1.416-11.782c-.794-.967-1.823-1.376-3.083-1.224-1.276.153-2.159.792-2.648 1.913-.49 1.123-.594 2.846-.314 5.17l.194 1.618zm-6.643-.843c-.485-4.04-.119-7.143 1.101-9.307 1.218-2.166 3.142-3.407 5.77-3.723 2.233-.27 4.063.405 5.49 2.02l-.013-2.215 5.811-.7 2.963 24.654c.378 3.144-.214 5.654-1.776 7.53-1.562 1.874-3.99 3.01-7.287 3.406-1.353.162-2.806.064-4.358-.297-1.555-.361-2.745-.915-3.576-1.662l1.63-4.726c.683.565 1.535.99 2.556 1.276 1.02.286 1.964.376 2.83.272 1.442-.173 2.438-.643 2.984-1.411.548-.766.737-1.918.568-3.454l-.254-2.12c-1.037 1.759-2.543 2.757-4.518 2.994-2.629.316-4.782-.461-6.464-2.332-1.68-1.87-2.76-4.664-3.238-8.382l-.219-1.823zM146.577 150.226l-2.163.074c-1.763.212-2.862 1.13-3.298 2.756l1.958 16.29-6.47.778-2.965-24.653 6.084-.731.502 2.643c.768-2.203 2.048-3.412 3.841-3.628.73-.088 1.333-.06 1.813.082l.698 6.389zM158.767 162.791c.714-.086 1.305-.304 1.77-.652.467-.349.798-.736.994-1.16l-.617-5.126-1.548.186c-1.094.132-1.914.585-2.461 1.357-.546.776-.75 1.749-.61 2.918.22 1.823 1.044 2.649 2.472 2.477zm4.358 4.146c-.227-.358-.486-.975-.776-1.849-.965 1.719-2.435 2.696-4.41 2.933-2.066.249-3.86-.229-5.384-1.433-1.523-1.202-2.416-2.891-2.677-5.063-.31-2.583.273-4.679 1.75-6.29 1.48-1.611 3.767-2.617 6.862-3.021l1.959-.236-.24-1.982c-.131-1.107-.416-1.867-.85-2.277-.435-.41-1.016-.573-1.745-.485-1.611.194-2.302 1.233-2.076 3.116l-6.448.775c-.274-2.278.354-4.26 1.886-5.947 1.53-1.687 3.602-2.687 6.215-3 2.704-.325 4.88.126 6.53 1.352 1.65 1.228 2.632 3.147 2.946 5.76l1.394 11.598c.286 2.124.79 3.749 1.512 4.88l.047.387-6.495.782zM177.183 134.088l.729 6.062 3.303-.398.58 4.83-3.302.398 1.472 12.254c.117.973.33 1.626.64 1.96.309.333.845.455 1.604.363.622-.074 1.125-.19 1.508-.343l.557 5.019c-1.044.54-2.205.887-3.481 1.042-4.163.5-6.552-1.634-7.173-6.405l-1.576-13.115-2.848.342-.58-4.83 2.847-.342-.728-6.063 6.448-.774zM194.477 163.167l-6.47.778-2.965-24.653 6.471-.778 2.964 24.653zm-10.498-30.22c-.12-1.003.1-1.861.661-2.575.563-.716 1.375-1.137 2.438-1.265 1.064-.127 1.952.089 2.667.651.713.561 1.131 1.343 1.252 2.347.12.986-.098 1.844-.65 2.573-.552.729-1.367 1.159-2.445 1.288-1.078.13-1.972-.094-2.68-.672-.71-.576-1.124-1.359-1.243-2.347zM209.587 154.648c-.065-.547-.39-1.022-.97-1.422-.578-.399-1.82-.887-3.721-1.458-2.788-.76-4.75-1.655-5.883-2.69-1.134-1.035-1.804-2.411-2.01-4.127-.26-2.157.305-4.032 1.693-5.624 1.388-1.593 3.366-2.543 5.933-2.852 2.703-.326 4.952.114 6.745 1.316 1.793 1.203 2.832 2.98 3.115 5.335l-6.448.775c-.241-2.006-1.197-2.907-2.868-2.707-.684.083-1.22.363-1.61.842-.39.476-.538 1.095-.447 1.855.067.547.367 1 .904 1.36.536.36 1.754.816 3.655 1.375 2.745.655 4.732 1.516 5.96 2.576 1.23 1.063 1.96 2.542 2.187 4.44.266 2.203-.35 4.073-1.844 5.61-1.495 1.535-3.587 2.463-6.276 2.787-1.807.218-3.445.056-4.912-.484-1.468-.54-2.668-1.392-3.602-2.56a7.66 7.66 0 0 1-1.664-3.938l6.129-.736c.166 1.12.53 1.931 1.09 2.434.562.502 1.405.688 2.529.552 1.73-.208 2.503-1.094 2.315-2.66"/>
    </g>
</svg>
