<svg xmlns="http://www.w3.org/2000/svg" width="60" height="60" viewBox="0 0 60 60">
    <defs>
        <linearGradient id="a" x1="50%" x2="50%" y1="100%" y2="0%">
            <stop offset="0%" stop-color="#C75509"/>
            <stop offset="100%" stop-color="#F18617"/>
        </linearGradient>
    </defs>
    <g fill="none" fill-rule="evenodd">
        <path fill="url(#a)" d="M20.919 0H39.08c6.024 0 9.036 0 12.278 1.025a12.745 12.745 0 0 1 7.616 7.617C60 11.884 60 14.895 60 20.919V39.08c0 6.024 0 9.036-1.025 12.278a12.743 12.743 0 0 1-7.616 7.616C48.116 60 45.105 60 39.08 60H20.92c-6.024 0-9.036 0-12.277-1.025a12.742 12.742 0 0 1-7.617-7.616C0 48.116 0 45.105 0 39.08V20.92c0-6.024 0-9.036 1.025-12.277a12.743 12.743 0 0 1 7.617-7.617C11.884 0 14.895 0 20.919 0"/>
        <path fill="#FFF" d="M30.5 51C19.196 51 10 41.804 10 30.5 10 19.197 19.197 10 30.5 10 41.804 10 51 19.196 51 30.5S41.804 51 30.5 51zm0-38.764c-10.07 0-18.264 8.194-18.264 18.264 0 10.07 8.194 18.263 18.264 18.263 10.07 0 18.264-8.193 18.264-18.263 0-10.07-8.193-18.264-18.264-18.264zm0 2.135c-8.908 0-16.129 7.22-16.129 16.129 0 6.362 3.685 11.862 9.036 14.487a9.68 9.68 0 1 1 14.734-.281c5.053-2.724 8.488-8.064 8.488-14.206 0-8.908-7.22-16.13-16.129-16.13z"/>
    </g>
</svg>
