<svg xmlns="http://www.w3.org/2000/svg" width="40" height="40" viewBox="0 0 40 40">
  <defs>
    <style>
      .cls-1 {
        fill: #de4b39;
        fill-rule: evenodd;
      }
    </style>
  </defs>
  <path id="g_" data-name="g+" class="cls-1" d="M1286,660h24a8,8,0,0,1,8,8v24a8,8,0,0,1-8,8h-24a8,8,0,0,1-8-8V668A8,8,0,0,1,1286,660Zm10.32,15.714a3.032,3.032,0,0,1-.68,2.142,3.8,3.8,0,0,1-2.07.858c-2.61,0-3.71-3.429-3.71-5.429a3.684,3.684,0,0,1,.68-2.285,2.667,2.667,0,0,1,2.07-1C1295.09,670,1296.32,673.428,1296.32,675.714Zm0.55-5.714h1.66l1.92-1h-6.05a7.873,7.873,0,0,0-5.23,1.714,5.286,5.286,0,0,0-1.93,4,4.691,4.691,0,0,0,5.23,4.714h0.96a2.369,2.369,0,0,0-.27,1.143,3.285,3.285,0,0,0,.82,2c-1.37.142-3.85,0.285-5.64,1.429a4.424,4.424,0,0,0-2.34,3.712c0,2.143,2.07,4.285,6.33,4.285,4.96,0,7.71-2.856,7.71-5.713,0-2.142-1.24-3.142-2.48-4.285l-1.1-.857a1.447,1.447,0,0,1-.82-1.286,2.191,2.191,0,0,1,.82-1.427c1.24-1,2.48-2,2.48-4.286A5.508,5.508,0,0,0,1296.87,670Zm15.14,9.141h-4.13v-4.284h-2.75v4.284H1301V682h4.13v4.285h2.75V682h4.13v-2.857Zm-18.03,4.428a10.884,10.884,0,0,0-3.16.43,3.374,3.374,0,0,0-2.48,3.141c0,2.142,2.07,3.714,5.23,3.714,2.89,0,4.41-1.428,4.41-3.285,0-1.575-.97-2.428-3.17-4h-0.83Z" transform="translate(-1278 -660)"/>
</svg>

