<svg xmlns="http://www.w3.org/2000/svg" width="40" height="40" viewBox="0 0 40 40"><defs><radialGradient id="instagram-a" gradientUnits="userSpaceOnUse" cx="158.429" cy="578.088" fx="158.429" fy="578.088" r="65" gradientTransform="matrix(0 -.6006 .55876 0 -312.242 137.88)"><stop offset="0" stop-color="#fd5"/><stop offset=".1" stop-color="#fd5"/><stop offset=".5" stop-color="#ff543e"/><stop offset="1" stop-color="#c837ab"/></radialGradient><radialGradient id="instagram-b" gradientUnits="userSpaceOnUse" cx="147.694" cy="473.455" fx="147.694" fy="473.455" r="65" gradientTransform="matrix(.0527 .26325 -1.0854 .21733 499.804 -138.634)"><stop offset="0" stop-color="#3771c8"/><stop offset=".128" stop-color="#3771c8"/><stop offset="1" stop-color="#60f" stop-opacity="0"/></radialGradient></defs><path d="M20.012.305c-8.227 0-10.633.008-11.098.047-1.691.14-2.738.406-3.883.972a7.963 7.963 0 0 0-2.265 1.66C1.516 4.281.758 5.88.484 7.774c-.132.921-.171 1.109-.18 5.816-.003 1.566 0 3.633 0 6.402 0 8.215.009 10.621.048 11.086.136 1.645.394 2.676.941 3.805a8.293 8.293 0 0 0 5.379 4.394c.812.211 1.707.325 2.86.38.488.023 5.46.038 10.437.038 4.976 0 9.949-.008 10.426-.03 1.335-.063 2.109-.169 2.964-.388a8.25 8.25 0 0 0 5.38-4.406c.534-1.101.804-2.176.929-3.73.023-.34.035-5.75.035-11.157 0-5.402-.012-10.804-.039-11.144-.121-1.582-.394-2.645-.945-3.77a7.738 7.738 0 0 0-1.688-2.308C35.727 1.516 34.133.758 32.234.484c-.918-.132-1.101-.171-5.812-.18zm0 0" fill="url(#instagram-a)"/><path d="M20.012.305c-8.227 0-10.633.008-11.098.047-1.691.14-2.738.406-3.883.972a7.963 7.963 0 0 0-2.265 1.66C1.516 4.281.758 5.88.484 7.774c-.132.921-.171 1.109-.18 5.816-.003 1.566 0 3.633 0 6.402 0 8.215.009 10.621.048 11.086.136 1.645.394 2.676.941 3.805a8.293 8.293 0 0 0 5.379 4.394c.812.211 1.707.325 2.86.38.488.023 5.46.038 10.437.038 4.976 0 9.949-.008 10.426-.03 1.335-.063 2.109-.169 2.964-.388a8.25 8.25 0 0 0 5.38-4.406c.534-1.101.804-2.176.929-3.73.023-.34.035-5.75.035-11.157 0-5.402-.012-10.804-.039-11.144-.121-1.582-.394-2.645-.945-3.77a7.738 7.738 0 0 0-1.688-2.308C35.727 1.516 34.133.758 32.234.484c-.918-.132-1.101-.171-5.812-.18zm0 0" fill="url(#instagram-b)"/><path d="M20 5.453c-3.95 0-4.445.02-5.996.09-1.547.07-2.606.316-3.531.676a7.104 7.104 0 0 0-2.575 1.676 7.079 7.079 0 0 0-1.68 2.578c-.363.925-.605 1.98-.675 3.53-.07 1.552-.09 2.048-.09 5.997 0 3.95.02 4.445.09 5.996.07 1.547.316 2.606.676 3.531a7.104 7.104 0 0 0 1.676 2.575 7.079 7.079 0 0 0 2.578 1.68c.925.359 1.98.605 3.53.675 1.552.07 2.048.09 5.997.09 3.95 0 4.445-.02 5.996-.09 1.547-.07 2.606-.316 3.531-.676a7.065 7.065 0 0 0 2.575-1.68 7.116 7.116 0 0 0 1.68-2.574c.359-.925.6-1.984.675-3.53.07-1.552.09-2.048.09-5.997 0-3.95-.02-4.445-.09-5.996-.074-1.55-.316-2.606-.676-3.531a7.13 7.13 0 0 0-1.68-2.578 7.104 7.104 0 0 0-2.574-1.676c-.925-.36-1.984-.606-3.535-.676-1.55-.07-2.043-.09-5.996-.09zm-1.305 2.621H20c3.887 0 4.344.016 5.879.086 1.418.063 2.187.3 2.7.5.679.266 1.163.578 1.671 1.09.512.508.824.992 1.09 1.672.2.512.437 1.281.5 2.7.07 1.53.086 1.991.086 5.874 0 3.883-.016 4.344-.086 5.875-.063 1.418-.3 2.188-.5 2.703a4.498 4.498 0 0 1-1.09 1.668 4.481 4.481 0 0 1-1.672 1.09c-.512.2-1.281.434-2.7.5-1.534.07-1.991.086-5.878.086-3.883 0-4.344-.016-5.875-.086-1.418-.066-2.188-.3-2.703-.5a4.481 4.481 0 0 1-1.672-1.09 4.53 4.53 0 0 1-1.09-1.672c-.2-.511-.433-1.28-.5-2.699-.07-1.535-.082-1.992-.082-5.879 0-3.883.012-4.34.082-5.875.067-1.418.3-2.187.5-2.699a4.577 4.577 0 0 1 1.09-1.676 4.472 4.472 0 0 1 1.672-1.086c.512-.199 1.285-.437 2.703-.504 1.34-.058 1.86-.078 4.57-.082zm9.07 2.418a1.745 1.745 0 1 0 0 3.488 1.745 1.745 0 0 0 0-3.488zM20 12.532a7.469 7.469 0 1 0 0 14.936 7.469 7.469 0 0 0 0-14.937zm0 2.62a4.848 4.848 0 1 1 0 9.696 4.847 4.847 0 1 1 0-9.695zm0 0" fill="#fff"/></svg>
