<svg xmlns="http://www.w3.org/2000/svg" width="40" height="40" viewBox="0 0 40 40"><style/><path id="twitter-Layer" d="M40 8v24c0 4.4-3.6 8-8 8H8c-4.4 0-8-3.6-8-8V8c0-4.4 3.6-8 8-8h24c4.4 0 8 3.6 8 8zm-6.8 4.9c-.9.4-1.8.7-2.8.8 1.1-.7 1.8-1.8 2.2-3-1.1.6-2.2 1-3.4 1.2-3-3.8-10.6-.8-9.2 4.8-4.3-.3-8.2-2.3-11-5.6-1.4 2.4-.2 6.2 1.6 7.2-.8 0-1.5-.2-2.2-.6-.1 2.6 1.7 4.8 4.2 5.4-.7.1-1.5.1-2.2 0 .7 2.2 2.7 3.7 5 3.8-2.2 1.7-5 2.5-7.8 2.2 2.5 1.7 5.5 2.5 8.6 2.4 8.8-.4 14.6-6.8 14.8-16 1-.8 2-1.6 2.2-2.6z" fill="#31aae1"/></svg>
