<svg xmlns="http://www.w3.org/2000/svg" width="40" height="40" viewBox="0 0 40 40"><style>.shp0{fill:red}</style><g id="youtube-Layer"><path id="youtube-Layer" class="shp0" d="M40 8v24c0 4.4-3.6 8-8 8H8c-4.4 0-8-3.6-8-8V8c0-4.4 3.6-8 8-8h24c4.4 0 8 3.6 8 8zm-5.5 12s0-4.7-.6-6.9c-.4-1.2-1.3-2.2-2.6-2.5C29.1 10 20 10 20 10s-8.9-.1-11.2.4c-1.3.4-2.5 1.4-2.8 2.6-.7 2.2-.6 6.9-.6 6.9s0 4.7.6 6.9c.4 1.3 1.6 2.3 2.8 2.6 2.3.7 11.2.6 11.2.6s8.9.1 11.2-.5c1.2-.4 2.4-1.4 2.7-2.6.6-2.2.6-6.9.6-6.9z"/><path id="youtube-Layer" class="shp0" d="M17.2 24.5l7.2-4.5-7.2-4.5z"/></g></svg>
