<svg xmlns="http://www.w3.org/2000/svg" xmlns:xlink="http://www.w3.org/1999/xlink" width="40pt" height="40pt" viewBox="0 0 40 40" version="1.1">
<defs>
<radialGradient id="radial0" gradientUnits="userSpaceOnUse" cx="158.429" cy="578.088" fx="158.429" fy="578.088" r="65" gradientTransform="matrix(0,-0.6006,0.558758,0,-312.241818,137.88)">
<stop offset="0" style="stop-color:rgb(100%,86.666667%,33.333333%);stop-opacity:1;"/>
<stop offset="0.1" style="stop-color:rgb(100%,86.666667%,33.333333%);stop-opacity:1;"/>
<stop offset="0.5" style="stop-color:rgb(100%,32.941176%,24.313725%);stop-opacity:1;"/>
<stop offset="1" style="stop-color:rgb(78.431373%,21.568627%,67.058824%);stop-opacity:1;"/>
</radialGradient>
<radialGradient id="radial1" gradientUnits="userSpaceOnUse" cx="147.694" cy="473.455" fx="147.694" fy="473.455" r="65" gradientTransform="matrix(0.0527091,0.263248,-1.085394,0.217327,499.803636,-138.634242)">
<stop offset="0" style="stop-color:rgb(21.568627%,44.313725%,78.431373%);stop-opacity:1;"/>
<stop offset="0.128" style="stop-color:rgb(21.568627%,44.313725%,78.431373%);stop-opacity:1;"/>
<stop offset="1" style="stop-color:rgb(40%,0%,100%);stop-opacity:0;"/>
</radialGradient>
</defs>
<g id="surface1">
<path style=" stroke:none;fill-rule:nonzero;fill:url(#radial0);" d="M 20.011719 0.304688 C 11.785156 0.304688 9.378906 0.3125 8.914062 0.351562 C 7.222656 0.492188 6.175781 0.757812 5.03125 1.324219 C 4.148438 1.765625 3.453125 2.273438 2.765625 2.984375 C 1.515625 4.28125 0.757812 5.878906 0.484375 7.773438 C 0.351562 8.695312 0.3125 8.882812 0.304688 13.589844 C 0.300781 15.15625 0.304688 17.222656 0.304688 19.992188 C 0.304688 28.207031 0.3125 30.613281 0.351562 31.078125 C 0.488281 32.722656 0.746094 33.753906 1.292969 34.882812 C 2.335938 37.046875 4.324219 38.671875 6.671875 39.277344 C 7.484375 39.488281 8.378906 39.601562 9.53125 39.65625 C 10.019531 39.679688 14.992188 39.695312 19.96875 39.695312 C 24.945312 39.695312 29.917969 39.6875 30.394531 39.664062 C 31.730469 39.601562 32.503906 39.496094 33.359375 39.277344 C 35.71875 38.667969 37.675781 37.066406 38.738281 34.871094 C 39.273438 33.769531 39.542969 32.695312 39.667969 31.140625 C 39.691406 30.800781 39.703125 25.390625 39.703125 19.984375 C 39.703125 14.582031 39.691406 9.179688 39.664062 8.839844 C 39.542969 7.257812 39.269531 6.195312 38.71875 5.070312 C 38.265625 4.148438 37.761719 3.460938 37.03125 2.761719 C 35.726562 1.515625 34.132812 0.757812 32.234375 0.484375 C 31.316406 0.351562 31.132812 0.3125 26.421875 0.304688 Z M 20.011719 0.304688 "/>
<path style=" stroke:none;fill-rule:nonzero;fill:url(#radial1);" d="M 20.011719 0.304688 C 11.785156 0.304688 9.378906 0.3125 8.914062 0.351562 C 7.222656 0.492188 6.175781 0.757812 5.03125 1.324219 C 4.148438 1.765625 3.453125 2.273438 2.765625 2.984375 C 1.515625 4.28125 0.757812 5.878906 0.484375 7.773438 C 0.351562 8.695312 0.3125 8.882812 0.304688 13.589844 C 0.300781 15.15625 0.304688 17.222656 0.304688 19.992188 C 0.304688 28.207031 0.3125 30.613281 0.351562 31.078125 C 0.488281 32.722656 0.746094 33.753906 1.292969 34.882812 C 2.335938 37.046875 4.324219 38.671875 6.671875 39.277344 C 7.484375 39.488281 8.378906 39.601562 9.53125 39.65625 C 10.019531 39.679688 14.992188 39.695312 19.96875 39.695312 C 24.945312 39.695312 29.917969 39.6875 30.394531 39.664062 C 31.730469 39.601562 32.503906 39.496094 33.359375 39.277344 C 35.71875 38.667969 37.675781 37.066406 38.738281 34.871094 C 39.273438 33.769531 39.542969 32.695312 39.667969 31.140625 C 39.691406 30.800781 39.703125 25.390625 39.703125 19.984375 C 39.703125 14.582031 39.691406 9.179688 39.664062 8.839844 C 39.542969 7.257812 39.269531 6.195312 38.71875 5.070312 C 38.265625 4.148438 37.761719 3.460938 37.03125 2.761719 C 35.726562 1.515625 34.132812 0.757812 32.234375 0.484375 C 31.316406 0.351562 31.132812 0.3125 26.421875 0.304688 Z M 20.011719 0.304688 "/>
<path style=" stroke:none;fill-rule:nonzero;fill:rgb(100%,100%,100%);fill-opacity:1;" d="M 20 5.453125 C 16.050781 5.453125 15.554688 5.472656 14.003906 5.542969 C 12.457031 5.613281 11.398438 5.859375 10.472656 6.21875 C 9.515625 6.589844 8.707031 7.085938 7.898438 7.894531 C 7.085938 8.703125 6.589844 9.515625 6.21875 10.472656 C 5.855469 11.398438 5.613281 12.453125 5.542969 14.003906 C 5.472656 15.554688 5.453125 16.050781 5.453125 20 C 5.453125 23.949219 5.472656 24.445312 5.542969 25.996094 C 5.613281 27.542969 5.859375 28.601562 6.21875 29.527344 C 6.589844 30.484375 7.085938 31.292969 7.894531 32.101562 C 8.703125 32.914062 9.515625 33.410156 10.472656 33.78125 C 11.398438 34.140625 12.453125 34.386719 14.003906 34.457031 C 15.554688 34.527344 16.050781 34.546875 20 34.546875 C 23.949219 34.546875 24.445312 34.527344 25.996094 34.457031 C 27.542969 34.386719 28.601562 34.140625 29.527344 33.78125 C 30.484375 33.410156 31.292969 32.914062 32.101562 32.101562 C 32.910156 31.292969 33.410156 30.484375 33.78125 29.527344 C 34.140625 28.601562 34.382812 27.542969 34.457031 25.996094 C 34.527344 24.445312 34.546875 23.949219 34.546875 20 C 34.546875 16.050781 34.527344 15.554688 34.457031 14.003906 C 34.382812 12.453125 34.140625 11.398438 33.78125 10.472656 C 33.410156 9.515625 32.910156 8.703125 32.101562 7.894531 C 31.292969 7.085938 30.484375 6.589844 29.527344 6.21875 C 28.601562 5.859375 27.542969 5.613281 25.992188 5.542969 C 24.441406 5.472656 23.949219 5.453125 19.996094 5.453125 Z M 18.695312 8.074219 C 19.082031 8.074219 19.515625 8.074219 20 8.074219 C 23.886719 8.074219 24.34375 8.089844 25.878906 8.160156 C 27.296875 8.222656 28.066406 8.460938 28.578125 8.660156 C 29.257812 8.925781 29.742188 9.238281 30.25 9.75 C 30.761719 10.257812 31.074219 10.742188 31.339844 11.421875 C 31.539062 11.933594 31.777344 12.703125 31.839844 14.121094 C 31.910156 15.652344 31.925781 16.113281 31.925781 19.996094 C 31.925781 23.878906 31.910156 24.339844 31.839844 25.871094 C 31.777344 27.289062 31.539062 28.058594 31.339844 28.574219 C 31.074219 29.25 30.761719 29.734375 30.25 30.242188 C 29.742188 30.753906 29.257812 31.066406 28.578125 31.332031 C 28.066406 31.53125 27.296875 31.765625 25.878906 31.832031 C 24.34375 31.902344 23.886719 31.917969 20 31.917969 C 16.117188 31.917969 15.65625 31.902344 14.125 31.832031 C 12.707031 31.765625 11.9375 31.53125 11.421875 31.332031 C 10.742188 31.066406 10.257812 30.753906 9.75 30.242188 C 9.242188 29.734375 8.925781 29.25 8.660156 28.570312 C 8.460938 28.058594 8.226562 27.289062 8.160156 25.871094 C 8.089844 24.335938 8.078125 23.878906 8.078125 19.992188 C 8.078125 16.109375 8.089844 15.652344 8.160156 14.117188 C 8.226562 12.699219 8.460938 11.929688 8.660156 11.417969 C 8.925781 10.738281 9.242188 10.253906 9.75 9.742188 C 10.257812 9.234375 10.742188 8.917969 11.421875 8.65625 C 11.933594 8.457031 12.707031 8.21875 14.125 8.152344 C 15.464844 8.09375 15.984375 8.074219 18.695312 8.070312 Z M 27.765625 10.492188 C 26.800781 10.492188 26.019531 11.273438 26.019531 12.234375 C 26.019531 13.199219 26.800781 13.980469 27.765625 13.980469 C 28.730469 13.980469 29.511719 13.199219 29.511719 12.234375 C 29.511719 11.273438 28.730469 10.492188 27.765625 10.492188 Z M 20 12.53125 C 15.875 12.53125 12.53125 15.875 12.53125 20 C 12.53125 24.125 15.875 27.46875 20 27.46875 C 24.125 27.46875 27.46875 24.125 27.46875 20 C 27.46875 15.875 24.125 12.53125 20 12.53125 Z M 20 15.152344 C 22.679688 15.152344 24.851562 17.320312 24.851562 20 C 24.851562 22.675781 22.679688 24.847656 20 24.847656 C 17.324219 24.847656 15.152344 22.675781 15.152344 20 C 15.152344 17.320312 17.324219 15.152344 20 15.152344 Z M 20 15.152344 "/>
</g>
</svg>