<?xml version="1.0" encoding="utf-8"?>
<!-- Generator: Adobe Illustrator 21.1.0, SVG Export Plug-In . SVG Version: 6.00 Build 0)  -->
<svg version="1.1" id="social" xmlns="http://www.w3.org/2000/svg" xmlns:xlink="http://www.w3.org/1999/xlink" x="0px" y="0px"
	 viewBox="0 0 175 40" style="enable-background:new 0 0 175 40;" xml:space="preserve">
<style type="text/css">
	.st0{fill:#3A5999;}
	.st1{fill:#31AAE1;}
	.st2{fill:#125688;}
	.st3{fill:#FF0000;}
</style>
<path id="fb" class="st0" d="M8,0h24c4.4,0,8,3.6,8,8v24c0,4.4-3.6,8-8,8H8c-4.4,0-8-3.6-8-8V8C0,3.6,3.6,0,8,0z M26.3,40V24.5h5.2
	l0.8-6h-6v-3.9c0-1.7,0.5-2.9,3-2.9h3.2V6.3C30.9,6.1,29.3,6,27.8,6C23.2,6,20,8.9,20,14v4.5h-5.2v6H20V40H26.3L26.3,40z"/>
<path class="st1" d="M77,0H53c-4.4,0-8,3.6-8,8v24c0,4.4,3.6,8,8,8h24c4.4,0,8-3.6,8-8V8C85,3.6,81.4,0,77,0z M76,15.5
	c-0.2,9.2-6,15.6-14.8,16c-3.1,0.1-6.1-0.7-8.6-2.4c2.8,0.3,5.6-0.5,7.8-2.2c-2.3-0.1-4.3-1.6-5-3.8c0.7,0.1,1.5,0.1,2.2,0
	c-2.5-0.6-4.3-2.8-4.2-5.4c0.7,0.4,1.4,0.6,2.2,0.6c-1.8-1-3-4.8-1.6-7.2c2.8,3.3,6.7,5.3,11,5.6c-1.4-5.6,6.2-8.6,9.2-4.8
	c1.2-0.2,2.3-0.6,3.4-1.2c-0.4,1.2-1.1,2.3-2.2,3c1-0.1,1.9-0.4,2.8-0.8C78,13.9,77,14.7,76,15.5z"/>
<g>
	<path class="st2" d="M160.7,8.6c-1.5-0.1-1.9-0.1-5.7-0.1s-4.2,0-5.7,0.1c-3.8,0.2-5.6,2-5.7,5.7c-0.1,1.5-0.1,1.9-0.1,5.7
		c0,3.7,0,4.2,0.1,5.7c0.2,3.8,1.9,5.6,5.7,5.7c1.5,0.1,1.9,0.1,5.7,0.1c3.7,0,4.2,0,5.7-0.1c3.8-0.2,5.6-2,5.7-5.7
		c0.1-1.5,0.1-1.9,0.1-5.7c0-3.7,0-4.2-0.1-5.7C166.2,10.6,164.5,8.8,160.7,8.6z M155,27.2c-4,0-7.2-3.2-7.2-7.2s3.2-7.2,7.2-7.2
		s7.2,3.2,7.2,7.2S159,27.2,155,27.2z M162.5,14.2c-0.9,0-1.7-0.8-1.7-1.7s0.8-1.7,1.7-1.7s1.7,0.8,1.7,1.7
		C164.2,13.5,163.4,14.2,162.5,14.2z"/>
	<path class="st2" d="M167,0h-24c-4.4,0-8,3.6-8,8v24c0,4.4,3.6,8,8,8h24c4.4,0,8-3.6,8-8V8C175,3.6,171.4,0,167,0z M168.9,25.8
		c-0.2,5.1-3.1,7.9-8.1,8.1c-1.5,0.1-2,0.1-5.8,0.1s-4.3,0-5.8-0.1c-5.1-0.2-7.9-3.1-8.1-8.1c-0.1-1.5-0.1-2-0.1-5.8s0-4.3,0.1-5.8
		c0.2-5.1,3.1-7.9,8.1-8.1c1.5-0.1,2-0.1,5.8-0.1s4.3,0,5.8,0.1c5.1,0.2,7.9,3.1,8.1,8.1c0.1,1.5,0.1,2,0.1,5.8S169,24.3,168.9,25.8
		z"/>
	<circle class="st2" cx="155" cy="20" r="4.7"/>
</g>
<g>
	<path class="st3" d="M122,0H98c-4.4,0-8,3.6-8,8v24c0,4.4,3.6,8,8,8h24c4.4,0,8-3.6,8-8V8C130,3.6,126.4,0,122,0z M123.9,26.9
		c-0.3,1.2-1.5,2.2-2.7,2.6C118.9,30.1,110,30,110,30s-8.9,0.1-11.2-0.6c-1.2-0.3-2.4-1.3-2.8-2.6c-0.6-2.2-0.6-6.9-0.6-6.9
		s-0.1-4.7,0.6-6.9c0.3-1.2,1.5-2.2,2.8-2.6C101.1,9.9,110,10,110,10s9.1,0,11.3,0.6c1.3,0.3,2.2,1.3,2.6,2.5
		c0.6,2.2,0.6,6.9,0.6,6.9S124.5,24.7,123.9,26.9z"/>
	<polygon class="st3" points="107.2,24.5 114.4,20 107.2,15.5 	"/>
</g>
</svg>
