<?xml version="1.0" encoding="utf-8"?>
<!-- Generator: Adobe Illustrator 20.1.0, SVG Export Plug-In . SVG Version: 6.00 Build 0)  -->
<svg version="1.1" id="Ebene_1" xmlns="http://www.w3.org/2000/svg" xmlns:xlink="http://www.w3.org/1999/xlink" x="0px" y="0px"
	 viewBox="0 0 128 44.7" enable-background="new 0 0 128 44.7" xml:space="preserve">
<g>
	<rect fill="#FECC04" width="128" height="44.7"/>
	<polygon fill="#D21130" points="14.6,27.8 14.6,28.8 25.9,28.8 26.6,27.8 	"/>
	<polygon fill="#D21130" points="99.8,27.8 99.1,28.8 113.8,28.8 113.8,27.8 	"/>
	<polygon fill="#D21130" points="14.6,26 14.6,27 27.3,27 28,26 	"/>
	<polygon fill="#D21130" points="14.6,24.2 14.6,25.2 28.6,25.2 29.4,24.2 	"/>
	<polygon fill="#D21130" points="101.2,26 100.4,27 113.8,27 113.8,26 	"/>
	<polygon fill="#D21130" points="102.5,24.2 101.8,25.2 113.8,25.2 113.8,24.2 	"/>
	<g>
		<defs>
			<rect id="SVGID_1_" x="14.6" y="15" width="99.2" height="16.6"/>
		</defs>
		<clipPath id="SVGID_2_">
			<use xlink:href="#SVGID_1_"  overflow="visible"/>
		</clipPath>
		<path clip-path="url(#SVGID_2_)" fill="#D21130" d="M27.6,28.8l6.4-8.5h7.9c0.9,0,0.9,0.3,0.4,0.9c-0.4,0.6-1.2,1.6-1.6,2.2
			c-0.2,0.3-0.6,0.8,0.7,0.8H52c-0.9,1.2-3.7,4.6-8.9,4.6H27.6z"/>
		<path clip-path="url(#SVGID_2_)" fill="#D21130" d="M64,24.2l-3.5,4.6h-9.1c0,0,3.5-4.6,3.5-4.6L64,24.2z"/>
		<polygon clip-path="url(#SVGID_2_)" fill="#D21130" points="77.2,24.2 73.7,28.8 64.6,28.8 68.1,24.2 		"/>
		<path clip-path="url(#SVGID_2_)" fill="#D21130" d="M80.2,24.2c0,0-0.7,0.9-1,1.3C78,27,79,28.8,82.8,28.8h14.6l3.5-4.6H80.2z"/>
		<path clip-path="url(#SVGID_2_)" fill="#D21130" d="M32,15l-3.2,4.2c0,0,16.4,0,17.3,0c0.9,0,0.9,0.3,0.4,0.9
			c-0.4,0.6-1.2,1.6-1.6,2.2c-0.2,0.3-0.6,0.8,0.7,0.8h7.1c0,0,1.1-1.5,2.1-2.8c1.3-1.7,0.1-5.3-4.5-5.3H32z"/>
		<polygon clip-path="url(#SVGID_2_)" fill="#D21130" points="78,23.1 55.7,23.1 61.8,15 70.9,15 67.4,19.7 71.5,19.7 75,15 
			84.1,15 		"/>
		<polygon clip-path="url(#SVGID_2_)" fill="#D21130" points="96.7,15 90.6,23.1 80.9,23.1 87,15 		"/>
		<polygon clip-path="url(#SVGID_2_)" fill="#D21130" points="20.2,33.6 22.6,33.6 22.5,34.2 20.9,34.2 20.7,35.2 22.1,35.2 
			21.9,35.9 20.5,35.9 20.3,37 21.9,37 21.8,37.6 19.3,37.6 		"/>
		<polygon clip-path="url(#SVGID_2_)" fill="#D21130" points="24.1,33.6 24.7,35 24.7,35 25.8,33.6 26.8,33.6 25.1,35.5 26,37.6 
			25.1,37.6 24.5,36 24.5,36 23.2,37.6 22.2,37.6 24.1,35.4 23.2,33.6 		"/>
		<path clip-path="url(#SVGID_2_)" fill="#D21130" d="M29.9,34.4c-0.2-0.1-0.5-0.2-0.9-0.2c-0.9,0-1.5,0.7-1.5,1.6
			c0,0.7,0.4,1.3,1.2,1.3c0.3,0,0.6-0.1,0.9-0.3l-0.1,0.8c-0.3,0.1-0.6,0.1-0.9,0.1c-1.2,0-1.8-0.8-1.8-1.9c0-1.3,0.9-2.3,2.3-2.3
			c0.4,0,0.8,0.1,1.2,0.2L29.9,34.4z"/>
		<polygon clip-path="url(#SVGID_2_)" fill="#D21130" points="30.7,33.6 33.1,33.6 33,34.2 31.4,34.2 31.2,35.2 32.6,35.2 
			32.5,35.9 31.1,35.9 30.8,37 32.4,37 32.3,37.6 29.9,37.6 		"/>
		<polygon clip-path="url(#SVGID_2_)" fill="#D21130" points="33.9,33.6 34.7,33.6 34,37 35.6,37 35.4,37.6 33,37.6 		"/>
		<polygon clip-path="url(#SVGID_2_)" fill="#D21130" points="36.7,33.6 37.5,33.6 36.8,37 38.4,37 38.2,37.6 35.8,37.6 		"/>
		<polygon clip-path="url(#SVGID_2_)" fill="#D21130" points="39.5,33.6 41.9,33.6 41.8,34.2 40.2,34.2 40,35.2 41.4,35.2 
			41.3,35.9 39.8,35.9 39.6,37 41.2,37 41.1,37.6 38.6,37.6 		"/>
		<polygon clip-path="url(#SVGID_2_)" fill="#D21130" points="42.7,33.6 43.7,33.6 44.6,36.7 44.6,36.7 45.2,33.6 46,33.6 
			45.1,37.6 44.1,37.6 43.2,34.5 43.2,34.5 42.6,37.6 41.8,37.6 		"/>
		<path clip-path="url(#SVGID_2_)" fill="#D21130" d="M49.5,34.4c-0.2-0.1-0.5-0.2-0.9-0.2c-0.9,0-1.5,0.7-1.5,1.6
			c0,0.7,0.4,1.3,1.2,1.3c0.3,0,0.6-0.1,0.9-0.3L49,37.6c-0.3,0.1-0.6,0.1-0.9,0.1c-1.2,0-1.8-0.8-1.8-1.9c0-1.3,0.9-2.3,2.3-2.3
			c0.4,0,0.8,0.1,1.2,0.2L49.5,34.4z"/>
		<polygon clip-path="url(#SVGID_2_)" fill="#D21130" points="50.5,33.6 52.9,33.6 52.8,34.2 51.2,34.2 51,35.2 52.4,35.2 
			52.3,35.9 50.8,35.9 50.6,37 52.2,37 52.1,37.6 49.6,37.6 		"/>
		<polygon clip-path="url(#SVGID_2_)" fill="#D21130" points="53.1,36.8 53.9,36.8 53.7,37.6 52.9,37.6 		"/>
		<path clip-path="url(#SVGID_2_)" fill="#D21130" d="M59.1,34.3c-0.2-0.1-0.5-0.2-0.8-0.2c-0.3,0-0.7,0.1-0.7,0.5
			c0,0.7,1.4,0.6,1.4,1.7c0,1-0.8,1.4-1.7,1.4c-0.4,0-0.8-0.1-1.2-0.2l0.2-0.7c0.3,0.1,0.6,0.3,1,0.3c0.4,0,0.8-0.2,0.8-0.6
			c0-0.7-1.4-0.6-1.4-1.7c0-0.9,0.7-1.2,1.5-1.2c0.4,0,0.7,0,1.1,0.2L59.1,34.3z"/>
		<polygon clip-path="url(#SVGID_2_)" fill="#D21130" points="60.4,33.6 61.2,33.6 60.4,37.6 59.5,37.6 		"/>
		<polygon clip-path="url(#SVGID_2_)" fill="#D21130" points="62.3,33.6 63.6,33.6 63.9,36.5 63.9,36.5 65.5,33.6 66.9,33.6 
			66,37.6 65.1,37.6 65.9,34.3 65.9,34.3 64,37.6 63.3,37.6 62.9,34.3 62.9,34.3 62.2,37.6 61.4,37.6 		"/>
		<path clip-path="url(#SVGID_2_)" fill="#D21130" d="M68.3,35.5h0.3c0.5,0,0.9-0.2,0.9-0.7c0-0.4-0.3-0.5-0.7-0.5h-0.3L68.3,35.5z
			 M67.8,37.6H67l0.9-4.1h0.7c0.8,0,1.8,0,1.8,1.1c0,1-0.8,1.5-1.7,1.5h-0.5L67.8,37.6z"/>
		<polygon clip-path="url(#SVGID_2_)" fill="#D21130" points="71.2,33.6 72.1,33.6 71.3,37 72.9,37 72.8,37.6 70.4,37.6 		"/>
		<polygon clip-path="url(#SVGID_2_)" fill="#D21130" points="73.9,36 73,33.6 73.8,33.6 74.4,35.3 75.8,33.6 76.7,33.6 74.8,36 
			74.4,37.6 73.6,37.6 		"/>
		<path clip-path="url(#SVGID_2_)" fill="#D21130" d="M79,37h0.4c1.2,0,1.7-0.7,1.7-1.8c0-0.6-0.5-1-1.2-1h-0.3L79,37z M78.9,33.6
			h1.2c0.9,0,1.8,0.3,1.8,1.7c0,0.9-0.5,2.3-2.5,2.3h-1.4L78.9,33.6z"/>
		<polygon clip-path="url(#SVGID_2_)" fill="#D21130" points="83.1,33.6 85.5,33.6 85.3,34.2 83.7,34.2 83.5,35.2 85,35.2 
			84.8,35.9 83.4,35.9 83.2,37 84.8,37 84.6,37.6 82.2,37.6 		"/>
		<polygon clip-path="url(#SVGID_2_)" fill="#D21130" points="86.3,33.6 87.1,33.6 86.4,37 88,37 87.9,37.6 85.4,37.6 		"/>
		<polygon clip-path="url(#SVGID_2_)" fill="#D21130" points="89.2,33.6 90.1,33.6 89.2,37.6 88.4,37.6 		"/>
		<polygon clip-path="url(#SVGID_2_)" fill="#D21130" points="90.5,33.6 91.3,33.6 91.7,36.7 91.7,36.7 93.4,33.6 94.3,33.6 
			92,37.6 91,37.6 		"/>
		<polygon clip-path="url(#SVGID_2_)" fill="#D21130" points="94.8,33.6 97.2,33.6 97,34.2 95.5,34.2 95.2,35.2 96.7,35.2 
			96.5,35.9 95.1,35.9 94.9,37 96.5,37 96.3,37.6 93.9,37.6 		"/>
		<path clip-path="url(#SVGID_2_)" fill="#D21130" d="M98.5,35.3h0.3c0.4,0,1-0.1,1-0.7c0-0.4-0.4-0.4-0.7-0.4h-0.3L98.5,35.3z
			 M98,33.6h1c0.8,0,1.6,0,1.6,1c0,0.7-0.5,1.1-1.2,1.1v0c0.2,0,0.4,0.2,0.4,0.4l0.4,1.6h-0.9l-0.2-1C99,36.3,99.1,36,98.6,36h-0.3
			L98,37.6h-0.8L98,33.6z"/>
		<polygon clip-path="url(#SVGID_2_)" fill="#D21130" points="101.7,33.6 104.1,33.6 103.9,34.2 102.3,34.2 102.1,35.2 103.6,35.2 
			103.4,35.9 102,35.9 101.8,37 103.4,37 103.2,37.6 100.8,37.6 		"/>
		<path clip-path="url(#SVGID_2_)" fill="#D21130" d="M104.9,37h0.4c1.2,0,1.7-0.7,1.7-1.8c0-0.6-0.5-1-1.2-1h-0.3L104.9,37z
			 M104.8,33.6h1.2c0.9,0,1.8,0.3,1.8,1.7c0,0.9-0.5,2.3-2.5,2.3h-1.4L104.8,33.6z"/>
		<polygon clip-path="url(#SVGID_2_)" fill="#D21130" points="108.2,36.8 109,36.8 108.9,37.6 108,37.6 		"/>
	</g>
</g>
</svg>
