<svg xmlns="http://www.w3.org/2000/svg" xmlns:xlink="http://www.w3.org/1999/xlink" preserveAspectRatio="xMidYMid" width="235" height="44.5" viewBox="0 0 235 44.5">
  <defs>
    <style>
      .cls-1 {
        fill: #f18713;
        fill-rule: evenodd;
      }
    </style>
  </defs>
  <path d="M225.285,44.500 C221.778,44.500 219.835,43.601 217.371,41.376 L219.598,39.198 C221.304,40.713 222.489,41.518 225.190,41.518 C229.692,41.518 231.588,38.346 231.588,34.369 L231.588,30.724 C229.692,33.138 227.560,33.754 225.048,33.754 C222.679,33.754 220.641,32.902 219.409,31.671 C217.086,29.351 216.565,25.753 216.565,21.966 C216.565,18.179 217.086,14.581 219.409,12.261 C220.641,11.030 222.726,10.225 225.095,10.225 C227.654,10.225 229.740,10.794 231.635,13.255 L231.635,10.510 L235.000,10.510 L235.000,34.512 C235.000,40.287 231.398,44.500 225.285,44.500 ZM225.806,13.255 C220.736,13.255 219.977,17.611 219.977,21.966 C219.977,26.322 220.736,30.677 225.806,30.677 C230.877,30.677 231.588,26.322 231.588,21.966 C231.588,17.611 230.877,13.255 225.806,13.255 ZM203.580,34.085 C200.737,34.085 198.509,33.044 196.899,31.434 C194.529,29.020 194.055,25.753 194.055,22.155 C194.055,18.558 194.529,15.291 196.899,12.877 C198.509,11.267 200.737,10.225 203.580,10.225 C206.424,10.225 208.651,11.267 210.262,12.877 C212.632,15.291 213.105,18.558 213.105,22.155 C213.105,25.753 212.632,29.020 210.262,31.434 C208.651,33.044 206.424,34.085 203.580,34.085 ZM207.845,14.960 C206.755,13.871 205.239,13.255 203.580,13.255 C201.922,13.255 200.453,13.871 199.363,14.960 C197.657,16.664 197.467,19.552 197.467,22.155 C197.467,24.759 197.657,27.647 199.363,29.351 C200.453,30.440 201.922,31.055 203.580,31.055 C205.239,31.055 206.755,30.440 207.845,29.351 C209.551,27.647 209.694,24.759 209.694,22.155 C209.694,19.552 209.551,16.664 207.845,14.960 ZM187.509,13.255 C184.097,13.255 181.917,15.954 181.917,19.504 L181.917,33.801 L178.505,33.801 L178.505,10.510 L181.917,10.510 L181.917,13.350 C183.197,11.409 185.756,10.225 188.457,10.225 C190.685,10.225 192.390,10.746 194.049,12.403 L191.537,14.960 C190.258,13.682 189.310,13.255 187.509,13.255 ZM169.877,33.801 L166.465,33.801 L166.465,13.255 L163.480,13.255 L163.480,10.652 L166.465,10.652 L166.465,6.249 C166.465,2.793 168.408,-0.000 172.389,-0.000 L174.853,-0.000 L174.853,2.935 L173.005,2.935 C170.825,2.935 169.877,4.213 169.877,6.343 L169.877,10.652 L174.853,10.652 L174.853,13.255 L169.877,13.255 L169.877,33.801 ZM151.576,27.552 L151.576,13.255 L148.638,13.255 L148.638,10.652 L151.576,10.652 L151.576,3.361 L154.988,3.361 L154.988,10.652 L159.964,10.652 L159.964,13.255 L154.988,13.255 L154.988,27.458 C154.988,29.588 155.984,30.866 158.163,30.866 L159.964,30.866 L159.964,33.801 L157.547,33.801 C153.566,33.801 151.576,31.008 151.576,27.552 ZM141.095,13.255 C137.682,13.255 135.503,15.954 135.503,19.504 L135.503,33.801 L132.090,33.801 L132.090,10.510 L135.503,10.510 L135.503,13.350 C136.782,11.409 139.341,10.225 142.042,10.225 C144.270,10.225 145.975,10.746 147.634,12.403 L145.123,14.960 C143.843,13.682 142.895,13.255 141.095,13.255 ZM122.992,31.576 C121.096,33.470 119.390,34.085 116.262,34.085 C113.040,34.085 111.145,33.470 109.675,31.955 C108.538,30.819 107.922,29.067 107.922,27.221 C107.922,23.150 110.765,20.498 115.978,20.498 L122.992,20.498 L122.992,18.273 C122.992,14.865 121.286,13.161 117.020,13.161 C114.035,13.161 112.519,13.871 111.145,15.812 L108.822,13.682 C110.908,10.983 113.277,10.225 117.068,10.225 C123.323,10.225 126.404,12.924 126.404,17.989 L126.404,33.801 L122.992,33.801 L122.992,31.576 ZM122.992,23.055 L116.452,23.055 C112.945,23.055 111.239,24.475 111.239,27.173 C111.239,29.872 112.898,31.150 116.594,31.150 C118.585,31.150 120.338,31.008 121.807,29.588 C122.613,28.830 122.992,27.505 122.992,25.564 L122.992,23.055 ZM100.671,19.457 C100.671,15.338 98.444,13.255 94.937,13.255 C91.525,13.255 89.108,15.386 89.108,19.078 L89.108,33.801 L85.696,33.801 L85.696,19.457 C85.696,15.338 83.469,13.255 79.962,13.255 C76.455,13.255 74.133,15.386 74.133,19.457 L74.133,33.801 L70.721,33.801 L70.721,10.510 L74.133,10.510 L74.133,13.066 C75.792,11.172 78.113,10.225 80.720,10.225 C83.943,10.225 86.454,11.551 87.876,14.107 C89.677,11.551 92.283,10.225 95.553,10.225 C98.065,10.225 100.150,11.030 101.571,12.403 C103.230,14.013 104.083,16.191 104.083,18.889 L104.083,33.801 L100.671,33.801 L100.671,19.457 ZM56.030,20.357 L59.774,20.688 C63.849,21.067 66.646,22.629 66.646,26.984 C66.646,31.482 62.807,34.085 57.168,34.085 C53.234,34.085 50.154,33.186 47.595,30.724 L49.870,28.452 C51.718,30.393 54.230,31.150 57.120,31.150 C60.959,31.150 63.328,29.777 63.328,27.031 C63.328,24.996 62.144,23.860 59.442,23.623 L55.604,23.292 C51.054,22.913 48.637,20.877 48.637,17.043 C48.637,12.782 52.239,10.225 57.215,10.225 C60.532,10.225 63.518,11.030 65.603,12.734 L63.376,14.960 C61.717,13.682 59.584,13.113 57.168,13.113 C53.756,13.113 51.955,14.581 51.955,16.948 C51.955,18.936 53.092,20.120 56.030,20.357 ZM22.310,44.500 C9.989,44.500 0.000,34.539 0.000,22.250 C0.000,9.962 9.989,-0.000 22.310,-0.000 C34.632,-0.000 44.620,9.962 44.620,22.250 C44.620,34.539 34.632,44.500 22.310,44.500 ZM22.310,2.225 C11.221,2.225 2.231,11.190 2.231,22.250 C2.231,33.310 11.221,42.275 22.310,42.275 C33.400,42.275 42.389,33.310 42.389,22.250 C42.389,11.190 33.400,2.225 22.310,2.225 ZM22.310,20.396 C16.355,20.396 11.527,25.211 11.527,31.150 C11.527,33.754 12.456,36.142 14.000,38.003 C8.330,35.021 4.462,29.088 4.462,22.250 C4.462,12.419 12.453,4.450 22.310,4.450 C32.167,4.450 40.158,12.419 40.158,22.250 C40.158,29.088 36.291,35.021 30.620,38.003 C32.165,36.142 33.093,33.754 33.093,31.150 C33.093,25.211 28.266,20.396 22.310,20.396 Z" class="cls-1"/>
</svg>
