<svg xmlns="http://www.w3.org/2000/svg" width="34" height="30" viewBox="0 0 34 30">
  <defs>
    <style>
      .cls-1 {
        fill: #646464;
        fill-rule: evenodd;
      }
    </style>
  </defs>
  <path id="ico-checkmark" class="cls-1" d="M3468.84,2437.94a2.094,2.094,0,0,0-2.9.34l-18.46,24.36-8.21-9.66a2.088,2.088,0,0,0-2.92-.14,1.978,1.978,0,0,0-.14,2.85l9.85,11.18,0.07,0.05,0.15,0.17,0.27,0.13,0.33,0.17,0.33,0.08,0.5,0.03,0.2-.02,0.6-.19,0.1-.06,0.37-.22,0.19-.25,0.01-.01,20.01-25.97A1.988,1.988,0,0,0,3468.84,2437.94Z" transform="translate(-3435.66 -2437.5)"/>
</svg>
